<svg version="1.1" xmlns="http://www.w3.org/2000/svg" viewBox="0 0 955.34375 435.2265625" width="955.34375" height="435.2265625" filter="invert(93%) hue-rotate(180deg)">
  <!-- svg-source:excalidraw -->
  
  <defs>
    <style class="style-fonts">
      @font-face {
        font-family: "Virgil";
        src: url("https://excalidraw.com/Virgil.woff2");
      }
      @font-face {
        font-family: "Cascadia";
        src: url("https://excalidraw.com/Cascadia.woff2");
      }
    </style>
    
  </defs>
  <rect x="0" y="0" width="955.34375" height="435.2265625" fill="#f8f9fa"></rect><g stroke-linecap="round" transform="translate(17.96875 32.9609375) rotate(0 52.38628978558785 49.971323530193445)"><path d="M4.71 29.27 C4.71 29.27, 4.71 29.27, 4.71 29.27 M4.71 29.27 C4.71 29.27, 4.71 29.27, 4.71 29.27 M1.41 35.67 C11.59 28.17, 19.66 17.17, 23.09 11.73 M3.32 36.37 C10.12 29.43, 17.64 21.56, 25.44 12.8 M2.03 43.13 C11.19 32.09, 23.5 19.57, 31.54 10.86 M2.35 44.28 C8.6 37.2, 14.09 30.16, 33.31 8.73 M-0.37 51.69 C11.64 40.59, 20.31 29.42, 38.08 6.94 M-0.75 53.04 C14.83 34.52, 31.47 16.02, 39.04 7.5 M4.43 56.24 C11.93 44.25, 22.05 32.23, 49.24 0.53 M3.5 55.89 C16.76 38.83, 29.75 24.94, 49.8 0.59 M2.96 59.11 C25.2 36.16, 43.54 16.46, 55.06 2.55 M4.27 59.41 C23.1 39.25, 41.35 17.75, 54.83 1.57 M4.62 62.87 C22.42 46.7, 33.68 30.73, 60.21 1.2 M6.61 63.58 C18.7 48.71, 31.83 34.56, 60.21 2.25 M10.06 69.23 C25.81 49.57, 40.06 30.79, 65.89 5.51 M7.51 68.05 C22.63 52.4, 35.59 36.92, 64.47 3.62 M9.34 70.69 C24.36 53.71, 42.04 33.13, 68.6 3.12 M9.82 73.05 C28.58 50.95, 46.11 31.16, 69 4.9 M9.49 77.12 C31.72 53.34, 48.46 30.55, 74.97 3.73 M9.42 77.33 C24.15 60.79, 38.29 44.53, 72.63 6.29 M13.97 81.41 C38.6 51.36, 60.72 24.08, 76.07 7.17 M12.42 81.09 C30.87 60, 47.31 40.5, 77.57 6.37 M15.73 82.12 C31.04 62.48, 49.91 44.06, 81.49 10.53 M15.86 83.93 C30.16 67.08, 43.5 50.72, 79.24 10.58 M19.23 86.07 C41.26 61, 63.35 34.47, 82.3 11.55 M19.48 84.81 C33.59 67.81, 49.78 51.23, 82.83 11.85 M22.75 88.45 C40.71 66.23, 55.57 49.27, 88.6 13.48 M21.66 87.44 C43.09 65.22, 60.75 42.88, 86.64 14.85 M27.24 90 C45.57 67.95, 63.56 47.92, 90.98 16.99 M25.96 90.72 C42.15 72.34, 57.55 53.83, 89.15 17.11 M29.18 94.1 C40.68 77.77, 53.35 65.28, 90.83 20.24 M27.73 93.23 C43.38 78.09, 57.41 61.27, 93.05 20.53 M29.47 95.88 C47.74 78.27, 63.45 61.2, 93.81 23.31 M30.62 95.63 C49.97 75.55, 70.34 53.86, 96.39 23.01 M35.61 97.88 C51.35 82.1, 61.66 66.06, 97.43 26.79 M36.48 97.56 C55.68 72.63, 78.22 49.02, 97.85 26.42 M39.32 98.9 C53.73 84.59, 64.35 68.27, 99.88 32.4 M40.64 97.92 C56.71 78.69, 73.1 60.15, 99.27 30.52 M46.69 97.66 C57.47 84.38, 67.32 72.28, 100.97 32.66 M45.79 99.75 C59.68 80.47, 75.8 62.3, 100.23 33.91 M49.7 98.87 C69.07 75.07, 91.69 51.86, 104.26 38.44 M49.15 99.64 C62.1 86.09, 76.22 69.3, 101.95 38.94 M53.12 100.65 C72.31 78.67, 90.06 58.43, 105.36 44.93 M55.08 100.49 C67.33 85.2, 81 71.24, 103.18 42.95 M57.43 101.88 C67.74 88.71, 81.04 74.54, 104.04 48.92 M57.67 102.13 C76.26 79.42, 94.77 58.56, 106.09 46.91 M66.88 99.07 C80.45 79.5, 94.82 61.76, 103.26 53.28 M66.53 99.53 C79.44 81.98, 93.29 65.91, 104.9 55.15 M73.96 97.79 C83.32 84.6, 93.13 72.43, 102.47 61.2 M74.84 95.54 C79.98 87.74, 85.47 80.58, 102.96 62.97" stroke="#ffec99" stroke-width="0.5" fill="none"></path><path d="M74.78 4.95 C82.58 7.77, 90.4 14.57, 95.28 21.33 C100.16 28.08, 103.48 37.06, 104.06 45.48 C104.64 53.9, 102.57 64.28, 98.74 71.83 C94.9 79.38, 88.04 86.21, 81.06 90.76 C74.07 95.31, 65.5 98.53, 56.82 99.14 C48.13 99.74, 36.75 97.94, 28.93 94.38 C21.11 90.83, 14.69 84.72, 9.89 77.81 C5.1 70.89, 0.97 61.06, 0.16 52.91 C-0.64 44.76, 1.35 36.12, 5.04 28.9 C8.73 21.67, 14.99 14.35, 22.29 9.57 C29.59 4.79, 39.8 0.82, 48.86 0.22 C57.92 -0.38, 71.64 4.56, 76.65 5.98 C81.65 7.4, 79.28 8.07, 78.9 8.73 M29.63 6.87 C36.54 2.54, 45.39 -1.23, 53.87 -1.06 C62.35 -0.9, 73.11 3.25, 80.52 7.86 C87.94 12.47, 94.1 18.96, 98.35 26.57 C102.61 34.18, 106.35 45.2, 106.04 53.52 C105.73 61.84, 101.46 69.43, 96.5 76.51 C91.54 83.58, 84.36 92.02, 76.28 95.99 C68.2 99.95, 56.57 101.07, 48.04 100.3 C39.51 99.54, 32.01 95.84, 25.1 91.39 C18.19 86.94, 10.67 80.9, 6.58 73.61 C2.48 66.33, 0.18 56.34, 0.55 47.69 C0.93 39.05, 4.33 29.03, 8.82 21.75 C13.32 14.46, 24.21 6.34, 27.52 3.98 C30.83 1.62, 28.09 6.81, 28.69 7.58" stroke="#1971c2" stroke-width="1" fill="none"></path></g><g transform="translate(54.169806688362314 76.88360706411709) rotate(0 16.142532348632812 6.213592233009706)"><text x="16.142532348632812" y="0" font-family="Virgil, Segoe UI Emoji" font-size="9.941747572815537px" fill="#1971c2" text-anchor="middle" style="white-space: pre;" direction="ltr" dominant-baseline="text-before-edge">Clients</text></g><g stroke-linecap="round" transform="translate(178.0869190884256 51.95080136129593) rotate(0 56.896707632405764 53.98386310544225)"><path d="M9.36 45.23 C9.36 45.23, 9.36 45.23, 9.36 45.23 M9.36 45.23 C9.36 45.23, 9.36 45.23, 9.36 45.23 M5.81 55.4 C17.68 42.04, 27 29.14, 35.99 20.69 M5.81 55.4 C11.56 48.5, 17.36 41.15, 35.99 20.69 M6.86 60.29 C23.18 44.92, 36.04 27, 55.41 4.44 M6.86 60.29 C24.09 40.76, 42.4 19.72, 55.41 4.44 M9.88 62.92 C21.47 46.97, 38.01 30.56, 60.4 4.8 M9.88 62.92 C20.39 49.06, 32.56 35.93, 60.4 4.8 M12.9 65.54 C27.61 52.83, 39.49 37.24, 63.42 7.43 M12.9 65.54 C29.4 44.98, 46.93 25.8, 63.42 7.43 M15.27 68.92 C32.69 50.21, 47.29 34.03, 66.44 10.05 M15.27 68.92 C31.02 51.27, 44.59 35.62, 66.44 10.05 M18.28 71.54 C32.65 52.21, 50.72 34.71, 69.46 12.68 M18.28 71.54 C38.28 50.1, 56.49 28.22, 69.46 12.68 M21.3 74.17 C39.71 50.51, 61.25 30.35, 73.13 14.55 M21.3 74.17 C33.74 60.11, 45.82 46.32, 73.13 14.55 M24.32 76.79 C33.99 66.19, 47.69 52.84, 75.49 17.93 M24.32 76.79 C36.32 64.98, 45.67 51.63, 75.49 17.93 M27.34 79.42 C41.5 63.03, 56.19 45.55, 78.51 20.55 M27.34 79.42 C37.83 65.7, 48.84 52.59, 78.51 20.55 M30.36 82.04 C41.36 66.03, 53.19 54.04, 81.53 23.17 M30.36 82.04 C48.92 62.13, 65.96 41.27, 81.53 23.17 M32.72 85.42 C46.9 70.28, 57.57 53.95, 84.55 25.8 M32.72 85.42 C46.92 68.83, 60.55 52.36, 84.55 25.8 M35.74 88.04 C49.47 73.57, 62.74 58.91, 87.57 28.42 M35.74 88.04 C51.51 70.29, 65.88 53.39, 87.57 28.42 M38.76 90.67 C49.75 78.56, 63.13 65.24, 89.93 31.8 M38.76 90.67 C53.44 73.21, 68.45 53.82, 89.93 31.8 M41.78 93.29 C56.33 78.3, 69 60.67, 92.95 34.43 M41.78 93.29 C56.53 76.02, 71.36 59.78, 92.95 34.43 M44.8 95.92 C65.35 71.84, 80.88 51.68, 95.97 37.05 M44.8 95.92 C59.82 77.44, 74.56 60.68, 95.97 37.05 M47.82 98.54 C63.24 80.94, 81.16 58.66, 98.99 39.67 M47.82 98.54 C60.03 84.74, 70.75 71.25, 98.99 39.67 M50.84 101.17 C69.79 82.1, 85.61 59.8, 102.01 42.3 M50.84 101.17 C68.04 82.1, 85.09 61.47, 102.01 42.3 M54.51 103.04 C70.35 84.89, 86.39 64.2, 104.37 45.68 M54.51 103.04 C72.18 82.63, 90.02 61.14, 104.37 45.68 M57.53 105.66 C69.56 92.96, 83.99 78.74, 106.73 49.06 M57.53 105.66 C77.84 82.42, 96.43 59.89, 106.73 49.06 M71.7 95.45 C86.99 77.4, 99.93 60.83, 109.1 52.44 M71.7 95.45 C82.9 81.43, 94.23 68.07, 109.1 52.44" stroke="#ffec99" stroke-width="0.5" fill="none"></path><path d="M71.25 13.5 M71.25 13.5 C80.92 22.24, 85.44 27.71, 99.54 40.5 M71.25 13.5 C80.78 21.32, 89.74 31.02, 99.54 40.5 M99.54 40.5 C112.57 55.1, 112.5 55.83, 99.54 67.5 M99.54 40.5 C115.29 53.05, 112.77 53.52, 99.54 67.5 M99.54 67.5 C88.01 79.57, 78.74 87.03, 71.25 94.47 M99.54 67.5 C93.7 73.39, 86.44 79.65, 71.25 94.47 M71.25 94.47 C57.2 109.23, 55.41 106.11, 42.75 94.47 M71.25 94.47 C59.2 110, 57.03 109.98, 42.75 94.47 M42.75 94.47 C35.99 87.67, 30.74 83.78, 14.25 67.5 M42.75 94.47 C34.89 87.05, 26.12 78.49, 14.25 67.5 M14.25 67.5 C-1.45 52.32, -1.71 52.94, 14.25 40.5 M14.25 67.5 C-1.88 55.52, -0.86 56.14, 14.25 40.5 M14.25 40.5 C22.63 29.99, 31.81 24.34, 42.75 13.5 M14.25 40.5 C24.19 31.61, 33.4 22.47, 42.75 13.5 M42.75 13.5 C57.81 -1.36, 57.63 -0.28, 71.25 13.5 M42.75 13.5 C55.14 -1.91, 57.09 1.49, 71.25 13.5" stroke="#1971c2" stroke-width="1" fill="none"></path></g><g transform="translate(224.00648719906212 99.83883681012094) rotate(0 11.028785705566406 6.103896103896091)"><text x="11.028785705566406" y="0" font-family="Virgil, Segoe UI Emoji" font-size="9.766233766233766px" fill="#1971c2" text-anchor="middle" style="white-space: pre;" direction="ltr" dominant-baseline="text-before-edge">UDM</text></g><g stroke-linecap="round" transform="translate(169.79236973939828 232.04719113499237) rotate(0 63.4294351596177 20.459204025509194)"><path d="M2.72 2.37 C2.72 2.37, 2.72 2.37, 2.72 2.37 M2.72 2.37 C2.72 2.37, 2.72 2.37, 2.72 2.37 M0.49 11.03 C2.67 9.69, 5.84 6.85, 10.33 -0.29 M0.49 11.03 C3.86 6.87, 7.92 1.7, 10.33 -0.29 M0.89 16.67 C7.52 10.27, 11.32 6.77, 13.35 2.33 M0.89 16.67 C4.64 13.29, 9.28 8.43, 13.35 2.33 M1.28 22.32 C8.29 16.24, 11.88 7.65, 18.34 2.69 M1.28 22.32 C8.25 14.18, 13.35 7.7, 18.34 2.69 M1.02 28.71 C9.25 17.3, 16.94 9.23, 23.98 2.3 M1.02 28.71 C7.35 20.26, 15.22 12.89, 23.98 2.3 M0.76 35.11 C6.74 26.97, 13.88 20.79, 28.97 2.66 M0.76 35.11 C8.09 25.59, 16.14 16.39, 28.97 2.66 M3.78 37.73 C11.14 27.92, 20.69 19.89, 33.96 3.02 M3.78 37.73 C16.29 25.39, 26.16 11.43, 33.96 3.02 M6.14 41.11 C14.39 32.19, 22.16 24.02, 39.6 2.62 M6.14 41.11 C16.26 28.56, 28.43 16.8, 39.6 2.62 M11.78 40.72 C17.34 34.27, 26.22 24.21, 44.59 2.98 M11.78 40.72 C22.77 28.53, 32.45 17.18, 44.59 2.98 M16.77 41.08 C26.87 27.19, 41.7 12.25, 50.23 2.59 M16.77 41.08 C28.55 29.06, 38.94 15.75, 50.23 2.59 M22.41 40.68 C30.85 27.38, 41.43 17.15, 55.22 2.95 M22.41 40.68 C29.03 31.78, 38.39 22.65, 55.22 2.95 M27.4 41.04 C34.55 31.08, 43.9 18.62, 60.86 2.55 M27.4 41.04 C33.77 32.01, 42.52 23.59, 60.86 2.55 M33.04 40.65 C42.49 28.41, 56.69 14.91, 65.85 2.91 M33.04 40.65 C42.41 30.29, 52.26 18.56, 65.85 2.91 M38.03 41.01 C51.49 26.93, 62.83 9.53, 71.49 2.52 M38.03 41.01 C51.01 25.51, 63.4 12.63, 71.49 2.52 M43.02 41.37 C52.95 28.54, 63.09 15.49, 76.48 2.88 M43.02 41.37 C55.51 27.38, 68.14 12.51, 76.48 2.88 M48.66 40.98 C60.89 27.55, 72.22 14.74, 81.46 3.24 M48.66 40.98 C55.32 31.27, 63.31 23.94, 81.46 3.24 M53.65 41.34 C59.49 32.88, 65.77 26.01, 87.11 2.85 M53.65 41.34 C64.35 30.39, 74.63 17.34, 87.11 2.85 M59.29 40.94 C72.42 28.55, 82.49 13.5, 92.09 3.21 M59.29 40.94 C69 29.57, 80.35 16.68, 92.09 3.21 M64.28 41.3 C71.37 35.53, 78.1 24.87, 97.74 2.81 M64.28 41.3 C75.05 28.25, 86.27 15.66, 97.74 2.81 M69.92 40.91 C84.5 25.35, 94.89 12.06, 102.72 3.17 M69.92 40.91 C82.06 26.84, 94.35 11.81, 102.72 3.17 M74.91 41.27 C82.04 33.96, 88.81 24.21, 108.37 2.78 M74.91 41.27 C82.24 32.85, 90.42 24.99, 108.37 2.78 M79.9 41.63 C91.58 24.92, 104.7 10.15, 113.35 3.14 M79.9 41.63 C89.58 31.36, 99.86 20.2, 113.35 3.14 M85.54 41.23 C92.21 30.33, 102.59 23.82, 118.34 3.5 M85.54 41.23 C95.73 29.98, 107.29 16.22, 118.34 3.5 M90.53 41.59 C99.73 27.51, 111.5 16.32, 123.98 3.1 M90.53 41.59 C101.26 28.33, 111.72 15.65, 123.98 3.1 M96.17 41.2 C108 29.12, 117.88 17.12, 126.35 6.48 M96.17 41.2 C105.62 28.3, 116.88 16.9, 126.35 6.48 M101.16 41.56 C109.9 31.56, 119.89 22.55, 126.74 12.12 M101.16 41.56 C107.45 33.55, 115.14 23.82, 126.74 12.12 M106.8 41.16 C111.79 35.57, 116.66 28.59, 126.48 18.52 M106.8 41.16 C115.09 32.32, 123.34 23.81, 126.48 18.52 M111.79 41.52 C116.88 36.14, 123.04 27.21, 126.88 24.17 M111.79 41.52 C116.83 35.27, 123.73 28.17, 126.88 24.17 M117.43 41.13 C119.35 37.34, 122.47 36.87, 126.61 30.56 M117.43 41.13 C119.68 37.54, 122.76 34.74, 126.61 30.56" stroke="#ffec99" stroke-width="0.5" fill="none"></path><path d="M10.23 0 M10.23 0 C42.47 -2.84, 76.68 -0.72, 116.63 0 M10.23 0 C47.4 -1.18, 87.11 -1.29, 116.63 0 M116.63 0 C122.31 1.12, 125.24 2.44, 126.86 10.23 M116.63 0 C124.91 -0.57, 125.3 2.87, 126.86 10.23 M126.86 10.23 C127.82 18.03, 126.36 21.52, 126.86 30.69 M126.86 10.23 C126.78 14.69, 127.11 19.83, 126.86 30.69 M126.86 30.69 C125.16 35.91, 124.53 40.07, 116.63 40.92 M126.86 30.69 C127.91 38.74, 121.78 39.24, 116.63 40.92 M116.63 40.92 C84.32 39.87, 51.42 40.86, 10.23 40.92 M116.63 40.92 C79.97 40.92, 44.13 41.11, 10.23 40.92 M10.23 40.92 C3.81 41.69, -1.45 39.27, 0 30.69 M10.23 40.92 C3.18 43.02, -2.05 36.5, 0 30.69 M0 30.69 C0.19 24.57, -1.35 19.87, 0 10.23 M0 30.69 C-0.11 26.21, 0.86 21.83, 0 10.23 M0 10.23 C1.7 4.51, 2.35 -1.33, 10.23 0 M0 10.23 C1.87 1.84, 4.21 1.53, 10.23 0" stroke="#1971c2" stroke-width="1" fill="none"></path></g><g transform="translate(210.50969247225817 246.12379807451572) rotate(0 22.712112426757812 6.38259708598585)"><text x="22.712112426757812" y="0" font-family="Virgil, Segoe UI Emoji" font-size="10.21215533757735px" fill="#1971c2" text-anchor="middle" style="white-space: pre;" direction="ltr" dominant-baseline="text-before-edge">10.0.3.53</text></g><g stroke-linecap="round" transform="translate(534.1135117686581 156.22806904374568) rotate(0 52.55952062749975 14.453868172562437)"><path d="M1.92 1.67 C1.92 1.67, 1.92 1.67, 1.92 1.67 M1.92 1.67 C1.92 1.67, 1.92 1.67, 1.92 1.67 M1.66 8.07 C3.39 5.76, 6.91 2.53, 8.22 0.52 M1.66 8.07 C3.17 5.75, 5.13 4.61, 8.22 0.52 M1.4 14.47 C3.67 9.43, 8.02 6.34, 13.21 0.88 M1.4 14.47 C4.47 9.28, 8.57 5.98, 13.21 0.88 M1.8 20.11 C5.93 11.37, 15.31 4.13, 18.85 0.49 M1.8 20.11 C5.35 16.12, 9.73 10.03, 18.85 0.49 M2.19 25.75 C6.41 20.08, 15.74 11.73, 23.84 0.85 M2.19 25.75 C8.6 19.65, 12.8 13.92, 23.84 0.85 M4.55 29.13 C14.48 18.59, 22.9 10.62, 29.48 0.45 M4.55 29.13 C10.33 23.45, 16.23 15.08, 29.48 0.45 M10.2 28.74 C15.99 20.48, 23.34 12.03, 34.47 0.81 M10.2 28.74 C16.52 21.09, 22.99 14.85, 34.47 0.81 M15.18 29.1 C24.99 19.07, 34.91 7.63, 39.46 1.17 M15.18 29.1 C21.95 19.63, 30.13 11.65, 39.46 1.17 M20.83 28.7 C29.7 21.28, 34.32 10.36, 45.1 0.78 M20.83 28.7 C30.94 17.08, 39.1 7.32, 45.1 0.78 M25.81 29.06 C37.29 19.61, 46.9 8.58, 50.09 1.14 M25.81 29.06 C31.3 22.09, 38.61 14.29, 50.09 1.14 M30.8 29.42 C37.93 23.87, 41.62 16.26, 55.73 0.75 M30.8 29.42 C37.44 20.38, 45.71 13.06, 55.73 0.75 M36.44 29.03 C43.5 20.56, 50.85 12.64, 60.72 1.11 M36.44 29.03 C44.8 19.74, 52.57 11.27, 60.72 1.11 M41.43 29.39 C49.79 22.99, 54.67 13.68, 66.36 0.71 M41.43 29.39 C47.53 22.75, 51.23 16.88, 66.36 0.71 M47.07 28.99 C53.62 22.07, 56.47 18.64, 71.35 1.07 M47.07 28.99 C54.89 20.53, 61.56 13.1, 71.35 1.07 M52.06 29.36 C61.6 19.08, 69.92 10.02, 76.99 0.68 M52.06 29.36 C60.25 18.81, 69.03 9, 76.99 0.68 M57.7 28.96 C66.96 17.8, 75.17 9.53, 81.98 1.04 M57.7 28.96 C66.33 19.84, 74.23 11.2, 81.98 1.04 M62.69 29.32 C70.29 19.39, 77.16 14.9, 86.96 1.4 M62.69 29.32 C69.39 21.23, 76.49 12.81, 86.96 1.4 M68.33 28.93 C74.72 19.76, 82.47 9.12, 92.61 1 M68.33 28.93 C72.85 23.79, 78.67 17.11, 92.61 1 M73.32 29.29 C82.22 19.53, 92.21 7.55, 97.59 1.36 M73.32 29.29 C79.58 23.85, 83.94 16.42, 97.59 1.36 M78.31 29.65 C84.79 19.06, 96.7 11.73, 102.58 1.72 M78.31 29.65 C85.62 20.53, 92.01 12.31, 102.58 1.72 M83.95 29.25 C94.01 20.58, 101.94 10.45, 105.6 4.35 M83.95 29.25 C91.23 21.99, 98.54 12.73, 105.6 4.35 M88.94 29.61 C94.32 25.49, 97.03 20.37, 105.34 10.74 M88.94 29.61 C94.1 24.56, 99.02 18.23, 105.34 10.74 M94.58 29.22 C98.56 26.25, 100.74 24.48, 105.08 17.14 M94.58 29.22 C98.74 24.25, 101.45 19.85, 105.08 17.14 M98.91 30.33 C101.16 27.22, 103.17 24.01, 105.47 22.78 M98.91 30.33 C101.24 27.31, 103.6 25.02, 105.47 22.78" stroke="#ffec99" stroke-width="0.5" fill="none"></path><path d="M7.23 0 M7.23 0 C41.34 -0.94, 73.69 -0.73, 97.89 0 M7.23 0 C25.84 -0.57, 45.86 -0.47, 97.89 0 M97.89 0 C103.45 -0.44, 104.32 3.1, 105.12 7.23 M97.89 0 C103.46 -0.21, 107.15 3.21, 105.12 7.23 M105.12 7.23 C104.96 11.94, 105.34 15.08, 105.12 21.68 M105.12 7.23 C105.4 12.35, 105.05 16.19, 105.12 21.68 M105.12 21.68 C106.57 26.19, 103.84 30.76, 97.89 28.91 M105.12 21.68 C103.55 28.5, 103.61 27.66, 97.89 28.91 M97.89 28.91 C76.22 29.71, 58.74 28.88, 7.23 28.91 M97.89 28.91 C73.87 29.88, 48.39 28.89, 7.23 28.91 M7.23 28.91 C4.08 30.71, -0.28 27.13, 0 21.68 M7.23 28.91 C4.68 29.68, -0.25 27.53, 0 21.68 M0 21.68 C-0.31 17.81, -0.45 12.43, 0 7.23 M0 21.68 C0.65 17.64, 0.29 13.11, 0 7.23 M0 7.23 C1.2 1.21, 2.85 -1.33, 7.23 0 M0 7.23 C-0.06 1.11, 4.67 1.65, 7.23 0" stroke="#1971c2" stroke-width="1" fill="none"></path></g><g transform="translate(552.977864854654 164.3406677993081) rotate(0 33.695167541503906 6.341269416999978)"><text x="33.695167541503906" y="0" font-family="Virgil, Segoe UI Emoji" font-size="10.146031067199955px" fill="#1971c2" text-anchor="middle" style="white-space: pre;" direction="ltr" dominant-baseline="text-before-edge">k8s_gateway</text></g><g stroke-linecap="round" transform="translate(362.0093119248709 238.68594979382215) rotate(0 52.55952062749975 14.453868172562437)"><path d="M1.92 1.67 C1.92 1.67, 1.92 1.67, 1.92 1.67 M1.92 1.67 C1.92 1.67, 1.92 1.67, 1.92 1.67 M1.66 8.07 C4.07 5.26, 5.43 4.18, 8.22 0.52 M1.66 8.07 C3.03 5.98, 4.41 4.94, 8.22 0.52 M1.4 14.47 C5.71 10.79, 8.34 7.7, 13.21 0.88 M1.4 14.47 C4.99 10.14, 8.74 6.17, 13.21 0.88 M1.8 20.11 C6.64 12.16, 13.45 4.38, 18.85 0.49 M1.8 20.11 C8 13.46, 14.31 6.73, 18.85 0.49 M2.19 25.75 C9.31 18.49, 12.06 13.31, 23.84 0.85 M2.19 25.75 C7.77 20.3, 12.26 15.23, 23.84 0.85 M4.55 29.13 C9.72 23.44, 18.49 16.16, 29.48 0.45 M4.55 29.13 C11.02 21.58, 15.95 15.02, 29.48 0.45 M10.2 28.74 C18.22 19.5, 27.7 10.15, 34.47 0.81 M10.2 28.74 C16.17 21.16, 22.61 14.43, 34.47 0.81 M15.18 29.1 C21.37 21.57, 28.85 11.88, 39.46 1.17 M15.18 29.1 C25.28 17.61, 33.26 8.53, 39.46 1.17 M20.83 28.7 C25.05 22.12, 31.65 14.44, 45.1 0.78 M20.83 28.7 C26.57 23.32, 31.11 16.81, 45.1 0.78 M25.81 29.06 C32.69 21.01, 40.57 11.56, 50.09 1.14 M25.81 29.06 C33.6 20.66, 39.69 11.65, 50.09 1.14 M30.8 29.42 C35.52 21.62, 41.42 14.69, 55.73 0.75 M30.8 29.42 C39.77 18.29, 51.13 6.72, 55.73 0.75 M36.44 29.03 C45.92 19.6, 52.99 10.75, 60.72 1.11 M36.44 29.03 C42.78 21.72, 51.14 12.14, 60.72 1.11 M41.43 29.39 C48.26 22.57, 53.84 12.02, 66.36 0.71 M41.43 29.39 C48.09 20.32, 55.43 12.62, 66.36 0.71 M47.07 28.99 C54.81 20.63, 64.68 10.38, 71.35 1.07 M47.07 28.99 C53.04 21.73, 58.42 15.35, 71.35 1.07 M52.06 29.36 C60.67 20.46, 66.01 13.07, 76.99 0.68 M52.06 29.36 C58.34 21.15, 66.13 14.51, 76.99 0.68 M57.7 28.96 C63.86 19.94, 72.6 12.13, 81.98 1.04 M57.7 28.96 C63.54 23.24, 68.34 16.9, 81.98 1.04 M62.69 29.32 C72.26 17.87, 78.85 9.25, 86.96 1.4 M62.69 29.32 C70.1 19.45, 79.44 10.95, 86.96 1.4 M68.33 28.93 C73.16 22.49, 80.02 12.54, 92.61 1 M68.33 28.93 C74.66 22.24, 79.96 14.47, 92.61 1 M73.32 29.29 C82.01 21.4, 85.73 11.84, 97.59 1.36 M73.32 29.29 C82.72 18.54, 91.54 7.59, 97.59 1.36 M78.31 29.65 C85.22 19.52, 93.06 9.01, 102.58 1.72 M78.31 29.65 C86.22 20.12, 95.98 9.39, 102.58 1.72 M83.95 29.25 C92.42 20.24, 96.93 12.12, 105.6 4.35 M83.95 29.25 C90.1 23.18, 96.61 16.37, 105.6 4.35 M88.94 29.61 C91.99 26.96, 98.46 18.73, 105.34 10.74 M88.94 29.61 C92.46 24.87, 97.02 21.5, 105.34 10.74 M94.58 29.22 C97.76 24.9, 101.35 20.96, 105.08 17.14 M94.58 29.22 C96.64 26.25, 99.35 23.75, 105.08 17.14 M98.91 30.33 C99.98 29.28, 102.14 27.39, 105.47 22.78 M98.91 30.33 C101.48 27.19, 104.27 24.69, 105.47 22.78" stroke="#ffec99" stroke-width="0.5" fill="none"></path><path d="M7.23 0 M7.23 0 C42.62 1.52, 80.52 1.94, 97.89 0 M7.23 0 C32.72 1.03, 60.6 -0.04, 97.89 0 M97.89 0 C104.63 0.37, 103.8 3.24, 105.12 7.23 M97.89 0 C102.4 0.29, 105.12 1.86, 105.12 7.23 M105.12 7.23 C106.48 11.23, 105.95 14.09, 105.12 21.68 M105.12 7.23 C105.57 12.34, 105.48 18.26, 105.12 21.68 M105.12 21.68 C103.57 26.75, 102.6 29.78, 97.89 28.91 M105.12 21.68 C105.36 28.28, 102.98 28.01, 97.89 28.91 M97.89 28.91 C70.17 30.55, 40.29 29.12, 7.23 28.91 M97.89 28.91 C70.25 28.61, 44.65 29.24, 7.23 28.91 M7.23 28.91 C4.4 29.89, 0.85 24.67, 0 21.68 M7.23 28.91 C4.67 27.81, -1.77 26.7, 0 21.68 M0 21.68 C-0.9 16.35, 0.55 9.89, 0 7.23 M0 21.68 C0.72 15.69, 0.41 11.73, 0 7.23 M0 7.23 C0.52 1.8, 3.37 0.58, 7.23 0 M0 7.23 C2.27 1.77, 1.64 -0.18, 7.23 0" stroke="#1971c2" stroke-width="1" fill="none"></path></g><g transform="translate(400.45905319446047 246.79854854938463) rotate(0 14.109779357910156 6.341269416999978)"><text x="14.109779357910156" y="0" font-family="Virgil, Segoe UI Emoji" font-size="10.146031067199955px" fill="#1971c2" text-anchor="middle" style="white-space: pre;" direction="ltr" dominant-baseline="text-before-edge">blocky</text></g><g stroke-linecap="round" transform="translate(574.7444849412448 239.31471359039142) rotate(0 52.55952062749975 14.453868172562437)"><path d="M1.92 1.67 C1.92 1.67, 1.92 1.67, 1.92 1.67 M1.92 1.67 C1.92 1.67, 1.92 1.67, 1.92 1.67 M1.66 8.07 C3.69 7.05, 3.93 4.33, 8.22 0.52 M1.66 8.07 C2.83 6.09, 4.96 4.99, 8.22 0.52 M1.4 14.47 C3.57 13.32, 5.67 7.43, 13.21 0.88 M1.4 14.47 C5.15 10.16, 10.08 4.52, 13.21 0.88 M1.8 20.11 C5.88 13.85, 11.23 9.29, 18.85 0.49 M1.8 20.11 C7.96 13.14, 13.85 5.18, 18.85 0.49 M2.19 25.75 C9.57 15.72, 16.53 5.98, 23.84 0.85 M2.19 25.75 C7.24 19.32, 13.47 13.52, 23.84 0.85 M4.55 29.13 C12.62 19.68, 23.65 7.78, 29.48 0.45 M4.55 29.13 C10.2 21.03, 16.91 13.17, 29.48 0.45 M10.2 28.74 C15.64 19.95, 24.4 13.37, 34.47 0.81 M10.2 28.74 C19.89 18.44, 28.48 9.07, 34.47 0.81 M15.18 29.1 C20.8 23.23, 27.38 15.13, 39.46 1.17 M15.18 29.1 C25.41 17.6, 33.7 8.04, 39.46 1.17 M20.83 28.7 C25.18 20.48, 32.19 17.42, 45.1 0.78 M20.83 28.7 C27.26 21.22, 35.72 12.16, 45.1 0.78 M25.81 29.06 C33.74 21.43, 37.23 13.53, 50.09 1.14 M25.81 29.06 C29.85 23.62, 35.76 17.43, 50.09 1.14 M30.8 29.42 C38.13 20.58, 46.74 8.64, 55.73 0.75 M30.8 29.42 C40.81 19.45, 48.96 9.87, 55.73 0.75 M36.44 29.03 C43.68 21.53, 49.73 12.7, 60.72 1.11 M36.44 29.03 C46.38 17.76, 55.6 6.77, 60.72 1.11 M41.43 29.39 C46.94 21.42, 55.68 12.72, 66.36 0.71 M41.43 29.39 C50.14 20.55, 57.16 11.85, 66.36 0.71 M47.07 28.99 C54.3 18.1, 62.25 12.37, 71.35 1.07 M47.07 28.99 C55.83 18.05, 65.34 7.54, 71.35 1.07 M52.06 29.36 C55.29 21.96, 63.9 17.26, 76.99 0.68 M52.06 29.36 C57.43 22.29, 64.54 16.37, 76.99 0.68 M57.7 28.96 C65.32 17.23, 78.2 9.14, 81.98 1.04 M57.7 28.96 C62.85 23.3, 68.12 16.74, 81.98 1.04 M62.69 29.32 C71.1 17.36, 79.74 10.65, 86.96 1.4 M62.69 29.32 C69.87 22.6, 75.03 14.82, 86.96 1.4 M68.33 28.93 C78.21 17.71, 83.06 8.88, 92.61 1 M68.33 28.93 C75.62 21.77, 82.93 13.04, 92.61 1 M73.32 29.29 C78.45 22.85, 84.25 15.48, 97.59 1.36 M73.32 29.29 C78.78 23.17, 84.37 15.81, 97.59 1.36 M78.31 29.65 C86.69 21.51, 97.44 8.41, 102.58 1.72 M78.31 29.65 C83.73 24.37, 89.36 17.57, 102.58 1.72 M83.95 29.25 C90.15 24.95, 93.23 16.54, 105.6 4.35 M83.95 29.25 C90.2 22.44, 95.87 16.96, 105.6 4.35 M88.94 29.61 C92.95 25.22, 96.06 19.44, 105.34 10.74 M88.94 29.61 C95.19 23.27, 100.69 17.01, 105.34 10.74 M94.58 29.22 C96.34 26.29, 99.87 20.59, 105.08 17.14 M94.58 29.22 C97.95 26.02, 101.24 21.31, 105.08 17.14 M98.91 30.33 C101.05 28.61, 102.09 25.57, 105.47 22.78 M98.91 30.33 C100.53 28.21, 103.16 26.28, 105.47 22.78" stroke="#ffec99" stroke-width="0.5" fill="none"></path><path d="M7.23 0 M7.23 0 C41.63 1.58, 78.72 -1.92, 97.89 0 M7.23 0 C35.1 -1.23, 63.51 -0.22, 97.89 0 M97.89 0 C102.24 1.29, 104.96 2.04, 105.12 7.23 M97.89 0 C104.97 -2.28, 106.39 4.28, 105.12 7.23 M105.12 7.23 C105.49 13.36, 104.67 16.17, 105.12 21.68 M105.12 7.23 C104.82 11.63, 104.72 14.99, 105.12 21.68 M105.12 21.68 C105.07 27.73, 101.83 28.08, 97.89 28.91 M105.12 21.68 C103.53 24.8, 100.59 28.78, 97.89 28.91 M97.89 28.91 C68.35 28.25, 38.28 29.93, 7.23 28.91 M97.89 28.91 C63.84 27.96, 28.13 28.86, 7.23 28.91 M7.23 28.91 C2.41 28.44, -1.76 24.57, 0 21.68 M7.23 28.91 C3.55 27.8, -1.31 24.25, 0 21.68 M0 21.68 C0.56 17.27, 1.21 12.25, 0 7.23 M0 21.68 C0.69 17.17, 0.09 12.02, 0 7.23 M0 7.23 C1.99 3.79, 2.97 0.9, 7.23 0 M0 7.23 C-0.44 1.68, 1.34 -1.08, 7.23 0" stroke="#1971c2" stroke-width="1" fill="none"></path></g><g transform="translate(608.9911927635687 247.4273123459539) rotate(0 18.31281280517578 6.341269416999978)"><text x="18.31281280517578" y="0" font-family="Virgil, Segoe UI Emoji" font-size="10.146031067199955px" fill="#1971c2" text-anchor="middle" style="white-space: pre;" direction="ltr" dominant-baseline="text-before-edge">coredns</text></g><g stroke-linecap="round"><g transform="translate(300.20054753069576 253.2337140629915) rotate(0 27.971935587335167 0.07469883015843948)"><path d="M-0.76 -0.98 C8.69 -0.89, 47.14 1.07, 56.7 1.1 M1.04 1.13 C10.33 0.85, 46.66 -0.28, 55.79 -0.46" stroke="#1971c2" stroke-width="1" fill="none"></path></g><g transform="translate(300.20054753069576 253.2337140629915) rotate(0 27.971935587335167 0.07469883015843948)"><path d="M27.81 10.02 C39.18 6.88, 44 3.15, 53.85 1.01 M29.33 10.25 C38.92 6.42, 46.2 2.63, 54.83 -0.75" stroke="#1971c2" stroke-width="1" fill="none"></path></g><g transform="translate(300.20054753069576 253.2337140629915) rotate(0 27.971935587335167 0.07469883015843948)"><path d="M27.31 -9.34 C38.92 -6.6, 43.9 -4.45, 53.85 1.01 M28.82 -9.11 C38.58 -6.6, 46.03 -4.05, 54.83 -0.75" stroke="#1971c2" stroke-width="1" fill="none"></path></g></g><mask></mask><g stroke-linecap="round" transform="translate(532.2918944073815 326.9513662772332) rotate(0 52.55952062749975 14.453868172562409)"><path d="M1.92 1.67 C1.92 1.67, 1.92 1.67, 1.92 1.67 M1.92 1.67 C1.92 1.67, 1.92 1.67, 1.92 1.67 M1.66 8.07 C3.9 6.17, 5.89 3.07, 8.22 0.52 M1.66 8.07 C4.7 5.34, 6.57 1.77, 8.22 0.52 M1.4 14.47 C4.76 10.67, 6.07 7.31, 13.21 0.88 M1.4 14.47 C5.65 9.74, 8.62 4.57, 13.21 0.88 M1.8 20.11 C7.58 12.3, 11.86 8.92, 18.85 0.49 M1.8 20.11 C6.72 14.68, 12.3 8.28, 18.85 0.49 M2.19 25.75 C9.71 16.51, 15.61 10.04, 23.84 0.85 M2.19 25.75 C11.01 15.78, 18.73 7.22, 23.84 0.85 M4.55 29.13 C14.54 16.93, 24.12 5.44, 29.48 0.45 M4.55 29.13 C11.96 20.09, 20.83 10.26, 29.48 0.45 M10.2 28.74 C15.34 19.36, 21.71 14.6, 34.47 0.81 M10.2 28.74 C15.06 23.91, 19.71 18.15, 34.47 0.81 M15.18 29.1 C23.7 20.86, 27.62 10.58, 39.46 1.17 M15.18 29.1 C21.3 23.1, 28.07 14.67, 39.46 1.17 M20.83 28.7 C25.66 23.29, 31.92 15.39, 45.1 0.78 M20.83 28.7 C25.6 23.27, 30.8 18.26, 45.1 0.78 M25.81 29.06 C30.86 22.37, 36.11 17.96, 50.09 1.14 M25.81 29.06 C33.66 19.17, 40.56 10.65, 50.09 1.14 M30.8 29.42 C36.96 23.33, 41.62 18.87, 55.73 0.75 M30.8 29.42 C39.44 19.38, 47.51 8.9, 55.73 0.75 M36.44 29.03 C42.48 22.06, 52.01 10.09, 60.72 1.11 M36.44 29.03 C41.21 22.35, 47.16 17.51, 60.72 1.11 M41.43 29.39 C48.69 20.94, 60.68 9.74, 66.36 0.71 M41.43 29.39 C50.16 19.09, 57.76 10.5, 66.36 0.71 M47.07 28.99 C54.23 20.93, 62.65 7.77, 71.35 1.07 M47.07 28.99 C56.13 17.66, 66.98 6.42, 71.35 1.07 M52.06 29.36 C59.38 24.77, 62.25 18.36, 76.99 0.68 M52.06 29.36 C60.43 19.54, 70.06 8.46, 76.99 0.68 M57.7 28.96 C62.34 21.09, 69.94 14.25, 81.98 1.04 M57.7 28.96 C64.13 20.15, 73.05 11.9, 81.98 1.04 M62.69 29.32 C70.38 18.48, 78.51 9.98, 86.96 1.4 M62.69 29.32 C69.71 20.94, 76.53 13.6, 86.96 1.4 M68.33 28.93 C74.81 23.02, 78.45 14.96, 92.61 1 M68.33 28.93 C78.13 17.49, 86.47 6.61, 92.61 1 M73.32 29.29 C83.89 17.17, 89.78 9.4, 97.59 1.36 M73.32 29.29 C78.64 23.53, 83.14 17, 97.59 1.36 M78.31 29.65 C86.45 17.67, 95.84 10.33, 102.58 1.72 M78.31 29.65 C83.35 23.49, 89.86 17.14, 102.58 1.72 M83.95 29.25 C92.63 21.42, 102.9 9.38, 105.6 4.35 M83.95 29.25 C89.45 24.66, 94.31 18.57, 105.6 4.35 M88.94 29.61 C95.01 22.52, 98.03 19.95, 105.34 10.74 M88.94 29.61 C93.59 24.38, 98.42 19.9, 105.34 10.74 M94.58 29.22 C99.05 25.8, 103.92 19.96, 105.08 17.14 M94.58 29.22 C98.78 24.6, 103.02 19.26, 105.08 17.14 M98.91 30.33 C101.52 28.85, 103.74 26.37, 105.47 22.78 M98.91 30.33 C100.49 28.98, 101.65 26.36, 105.47 22.78" stroke="#ffec99" stroke-width="0.5" fill="none"></path><path d="M7.23 0 M7.23 0 C41.8 1.44, 74.82 -0.34, 97.89 0 M7.23 0 C39.2 -0.09, 69.97 1.7, 97.89 0 M97.89 0 C101.14 -1.65, 105.88 0.85, 105.12 7.23 M97.89 0 C100.64 -2, 106.45 2.88, 105.12 7.23 M105.12 7.23 C106.11 12.3, 104.35 16.22, 105.12 21.68 M105.12 7.23 C105.22 12.96, 105.41 18.25, 105.12 21.68 M105.12 21.68 C105.03 26.29, 103.21 30.15, 97.89 28.91 M105.12 21.68 C104.49 28.72, 102.65 28.45, 97.89 28.91 M97.89 28.91 C64.25 27.03, 32.6 29.47, 7.23 28.91 M97.89 28.91 C64.81 29.55, 33.79 29.59, 7.23 28.91 M7.23 28.91 C2.88 27.94, 1.45 27.05, 0 21.68 M7.23 28.91 C2.93 30.87, -0.19 25.37, 0 21.68 M0 21.68 C0.25 15.32, -0.19 12.16, 0 7.23 M0 21.68 C0.34 17.5, 0.32 14.28, 0 7.23 M0 7.23 C-1.27 3.22, 3.93 -1.75, 7.23 0 M0 7.23 C0.64 2.95, 2.09 -1.82, 7.23 0" stroke="#e03131" stroke-width="1" fill="none"></path></g><g transform="translate(562.3051656452328 335.06396503279575) rotate(0 22.546249389648438 6.341269416999978)"><text x="22.546249389648438" y="0" font-family="Virgil, Segoe UI Emoji" font-size="10.146031067199955px" fill="#e03131" text-anchor="middle" style="white-space: pre;" direction="ltr" dominant-baseline="text-before-edge">blocklists</text></g><g stroke-linecap="round" transform="translate(680.2869793653622 156.5899290246283) rotate(0 52.55952062749975 14.453868172562437)"><path d="M1.92 1.67 C1.92 1.67, 1.92 1.67, 1.92 1.67 M1.92 1.67 C1.92 1.67, 1.92 1.67, 1.92 1.67 M1.66 8.07 C2.68 6.15, 4.97 3.19, 8.22 0.52 M1.66 8.07 C3.76 6.01, 5.34 4.01, 8.22 0.52 M1.4 14.47 C3.64 12.12, 5.91 10.43, 13.21 0.88 M1.4 14.47 C4.61 11.12, 8.71 6.1, 13.21 0.88 M1.8 20.11 C6.18 12.19, 14.66 7.6, 18.85 0.49 M1.8 20.11 C5.6 16.66, 9.64 12.11, 18.85 0.49 M2.19 25.75 C8.78 19.51, 16.12 9.16, 23.84 0.85 M2.19 25.75 C10.04 16.05, 17.94 6.52, 23.84 0.85 M4.55 29.13 C9.61 19.7, 18.61 16.19, 29.48 0.45 M4.55 29.13 C9.43 22.66, 16.28 17.08, 29.48 0.45 M10.2 28.74 C15.59 19.06, 25.3 14.13, 34.47 0.81 M10.2 28.74 C15.52 21.06, 22.65 12.98, 34.47 0.81 M15.18 29.1 C23.38 22.89, 30.74 12.29, 39.46 1.17 M15.18 29.1 C20.21 24.21, 24.92 17.92, 39.46 1.17 M20.83 28.7 C27.5 19.84, 35.91 12.31, 45.1 0.78 M20.83 28.7 C28.19 20.86, 34.3 13.88, 45.1 0.78 M25.81 29.06 C33.61 19.55, 37.91 14.5, 50.09 1.14 M25.81 29.06 C33.95 19.39, 41.94 10.66, 50.09 1.14 M30.8 29.42 C38.72 21.4, 44.36 14.92, 55.73 0.75 M30.8 29.42 C36.8 22.75, 42.67 16.96, 55.73 0.75 M36.44 29.03 C45 19.9, 48.95 14.39, 60.72 1.11 M36.44 29.03 C40.86 22.3, 47.95 15.64, 60.72 1.11 M41.43 29.39 C47.65 22.8, 54.81 12.25, 66.36 0.71 M41.43 29.39 C46.53 21.78, 53.56 15.84, 66.36 0.71 M47.07 28.99 C51.45 22.9, 59.68 14.44, 71.35 1.07 M47.07 28.99 C56.65 18.9, 65.18 7.74, 71.35 1.07 M52.06 29.36 C55.75 22.9, 61.3 16.73, 76.99 0.68 M52.06 29.36 C59.26 21.66, 64.11 14.16, 76.99 0.68 M57.7 28.96 C65.04 19.88, 69.66 15.98, 81.98 1.04 M57.7 28.96 C67.8 18.52, 76.95 8.27, 81.98 1.04 M62.69 29.32 C71.91 19.65, 78.94 12.42, 86.96 1.4 M62.69 29.32 C69.08 20.75, 77.45 12.64, 86.96 1.4 M68.33 28.93 C72.59 21.13, 78.88 13.72, 92.61 1 M68.33 28.93 C73.84 23.21, 79.96 15.28, 92.61 1 M73.32 29.29 C79.04 21.41, 85.69 15.57, 97.59 1.36 M73.32 29.29 C78.83 22.19, 86.18 14.08, 97.59 1.36 M78.31 29.65 C87.3 20.99, 96.16 7.3, 102.58 1.72 M78.31 29.65 C84.12 22.6, 90.15 15.98, 102.58 1.72 M83.95 29.25 C91.28 23.4, 96.35 17.33, 105.6 4.35 M83.95 29.25 C90.32 22.88, 95.7 16.78, 105.6 4.35 M88.94 29.61 C96.63 22.74, 101.36 14.43, 105.34 10.74 M88.94 29.61 C95.28 22.57, 100.73 15.5, 105.34 10.74 M94.58 29.22 C96.89 25.55, 100.48 22.13, 105.08 17.14 M94.58 29.22 C97.68 25.45, 101.69 21.22, 105.08 17.14 M98.91 30.33 C99.78 28.89, 102.98 27.41, 105.47 22.78 M98.91 30.33 C100.22 28.85, 101.66 26.81, 105.47 22.78" stroke="#ffec99" stroke-width="0.5" fill="none"></path><path d="M7.23 0 M7.23 0 C34.87 -1.01, 59.39 -0.23, 97.89 0 M7.23 0 C27.57 0.46, 47.58 0.58, 97.89 0 M97.89 0 C102.07 0.01, 105.33 3.44, 105.12 7.23 M97.89 0 C103 1.08, 107.37 3.05, 105.12 7.23 M105.12 7.23 C105.16 10.69, 104.68 14.5, 105.12 21.68 M105.12 7.23 C104.75 12.26, 105.37 15.52, 105.12 21.68 M105.12 21.68 C104.8 25.93, 104.25 29.42, 97.89 28.91 M105.12 21.68 C104.61 27.48, 103.54 31, 97.89 28.91 M97.89 28.91 C80.09 26.97, 59.73 27.66, 7.23 28.91 M97.89 28.91 C72.21 29.72, 45.71 28.52, 7.23 28.91 M7.23 28.91 C3.36 27.63, -1.82 27.17, 0 21.68 M7.23 28.91 C3.04 28.87, -0.93 27.45, 0 21.68 M0 21.68 C0.82 19.38, -1.15 14.8, 0 7.23 M0 21.68 C-0.09 17.73, -0.27 13.75, 0 7.23 M0 7.23 C-0.03 1.45, 0.86 -0.23, 7.23 0 M0 7.23 C-1.24 2.05, 2.77 0.37, 7.23 0" stroke="#1971c2" stroke-width="1" fill="none"></path></g><g transform="translate(711.6995578541901 164.7025277801908) rotate(0 21.146942138671875 6.341269416999978)"><text x="21.146942138671875" y="0" font-family="Virgil, Segoe UI Emoji" font-size="10.146031067199955px" fill="#1971c2" text-anchor="middle" style="white-space: pre;" direction="ltr" dominant-baseline="text-before-edge">host file</text></g><g stroke-linecap="round"><g transform="translate(469.86972381271585 235.4420418800937) rotate(0 27.50502581188931 -29.86929611977689)"><path d="M0 1.13 C9.41 -9.01, 47.14 -50.74, 56.47 -60.87 M-1.46 0.68 C7.76 -9.26, 45.37 -49.07, 55.36 -59.41" stroke="#1971c2" stroke-width="1" fill="none"></path></g><g transform="translate(469.86972381271585 235.4420418800937) rotate(0 27.50502581188931 -29.86929611977689)"><path d="M45.21 -32.43 C46.73 -41.55, 52.48 -50.18, 54.49 -58.85 M42.43 -32.35 C46.62 -38.92, 48.59 -45.09, 55 -60.13" stroke="#1971c2" stroke-width="1" fill="none"></path></g><g transform="translate(469.86972381271585 235.4420418800937) rotate(0 27.50502581188931 -29.86929611977689)"><path d="M30.36 -46.59 C36.37 -51.42, 46.61 -55.77, 54.49 -58.85 M27.58 -46.51 C35.19 -49.91, 40.49 -52.89, 55 -60.13" stroke="#1971c2" stroke-width="1" fill="none"></path></g></g><mask></mask><g stroke-linecap="round"><g transform="translate(473.38006178575847 253.83227801237024) rotate(0 48.08128374117598 0.6687061192987755)"><path d="M0.27 -0.55 C16.6 -0.44, 81.31 -0.17, 97.21 -0.19 M-1.05 1.77 C15.29 2.15, 80.92 1.53, 96.88 1.28" stroke="#1971c2" stroke-width="1" fill="none"></path></g><g transform="translate(473.38006178575847 253.83227801237024) rotate(0 48.08128374117598 0.6687061192987755)"><path d="M67.89 13.82 C75.34 8.66, 81.18 6.76, 98.28 0.99 M68.36 12.36 C77.02 8.51, 83.67 6.89, 96.19 1.98" stroke="#1971c2" stroke-width="1" fill="none"></path></g><g transform="translate(473.38006178575847 253.83227801237024) rotate(0 48.08128374117598 0.6687061192987755)"><path d="M67.65 -6.7 C75.02 -6.98, 80.91 -4, 98.28 0.99 M68.13 -8.16 C76.88 -6.67, 83.59 -2.95, 96.19 1.98" stroke="#1971c2" stroke-width="1" fill="none"></path></g></g><mask></mask><g stroke-linecap="round"><g transform="translate(468.3946419587535 271.8839167090902) rotate(0 27.975292778783 33.785199807211626)"><path d="M0.51 0.43 C9.9 11.65, 47.46 55.84, 56.63 67.05 M-0.68 -0.39 C8.62 10.96, 47.02 56.45, 56.25 67.96" stroke="#e03131" stroke-width="1" fill="none"></path></g><g transform="translate(468.3946419587535 271.8839167090902) rotate(0 27.975292778783 33.785199807211626)"><path d="M31.11 54.57 C36.78 57.54, 46.2 62.92, 54.77 66.17 M30.62 53.65 C37.71 57.64, 43.23 61.11, 55.61 67.05" stroke="#e03131" stroke-width="1" fill="none"></path></g><g transform="translate(468.3946419587535 271.8839167090902) rotate(0 27.975292778783 33.785199807211626)"><path d="M46.93 41.5 C47.43 48.79, 51.69 58.43, 54.77 66.17 M46.44 40.58 C49.41 47.99, 50.81 54.85, 55.61 67.05" stroke="#e03131" stroke-width="1" fill="none"></path></g></g><mask></mask><g transform="translate(488.8076993339488 291.0336478322353) rotate(49.54820770177009 9.984489440917969 6.569940078437469)"><text x="0" y="0" font-family="Virgil, Segoe UI Emoji" font-size="10.511904125499953px" fill="#1e1e1e" text-anchor="start" style="white-space: pre;" direction="ltr" dominant-baseline="text-before-edge">else</text></g><g transform="translate(479.6660359563185 242.16750525560496) rotate(0.25726372101070477 31.219917297363224 6.569940078437469)"><text x="0" y="0" font-family="Virgil, Segoe UI Emoji" font-size="10.511904125499953px" fill="#1e1e1e" text-anchor="start" style="white-space: pre;" direction="ltr" dominant-baseline="text-before-edge">cluster.local</text></g><g transform="translate(468.23291937660554 204.39367976916662) rotate(312.17411897728795 17.14179229736328 6.569940078437469)"><text x="0" y="0" font-family="Virgil, Segoe UI Emoji" font-size="10.511904125499953px" fill="#1e1e1e" text-anchor="start" style="white-space: pre;" direction="ltr" dominant-baseline="text-before-edge">ktwo.io</text></g><g stroke-linecap="round"><g transform="translate(645.0043480378786 170.73180276154562) rotate(0 15.739622796263461 -0.5112268569932326)"><path d="M0.88 -0.28 C5.98 -0.05, 24.6 0.31, 29.4 0.52 M-0.11 -1.48 C5.46 -1.56, 26.21 -1.57, 31.59 -1.49" stroke="#1971c2" stroke-width="1" fill="none"></path></g><g transform="translate(645.0043480378786 170.73180276154562) rotate(0 15.739622796263461 -0.5112268569932326)"><path d="M16.93 2.37 C20.46 1.59, 23.9 0.28, 30.23 -1.73 M16.97 4.33 C22.57 2.27, 27.9 -0.7, 31.2 -1.42" stroke="#1971c2" stroke-width="1" fill="none"></path></g><g transform="translate(645.0043480378786 170.73180276154562) rotate(0 15.739622796263461 -0.5112268569932326)"><path d="M16.99 -8.02 C20.43 -6.72, 23.86 -5.95, 30.23 -1.73 M17.03 -6.06 C22.67 -4.49, 27.98 -3.83, 31.2 -1.42" stroke="#1971c2" stroke-width="1" fill="none"></path></g></g><mask></mask><g stroke-linecap="round"><g transform="translate(128.24532084611576 100.92121006300499) rotate(0 22.96953471177534 0.8029697753605092)"><path d="M0.83 1.1 C8.25 1.51, 36.71 1.74, 43.86 1.61 M-0.19 0.63 C7.66 0.79, 38.42 -0.16, 46.13 -0.03" stroke="#1971c2" stroke-width="1" fill="none"></path></g><g transform="translate(128.24532084611576 100.92121006300499) rotate(0 22.96953471177534 0.8029697753605092)"><path d="M27.04 6.42 C31.95 4.06, 34.95 3.04, 46.03 0.33 M25.8 7.55 C31.21 5.4, 36.1 4.53, 45.7 0.66" stroke="#1971c2" stroke-width="1" fill="none"></path></g><g transform="translate(128.24532084611576 100.92121006300499) rotate(0 22.96953471177534 0.8029697753605092)"><path d="M26.89 -8.87 C31.73 -7.45, 34.77 -4.7, 46.03 0.33 M25.66 -7.74 C30.98 -5.91, 35.9 -2.79, 45.7 0.66" stroke="#1971c2" stroke-width="1" fill="none"></path></g></g><mask></mask><g stroke-linecap="round"><g transform="translate(234.9020759812497 164.29993475140793) rotate(0 0.33378215609610606 30.45641952403568)"><path d="M0.94 0.91 C1.05 10.65, 0.86 49.45, 0.96 59.09 M-0.02 0.34 C-0.14 10.22, -0.41 50.66, -0.27 60.57" stroke="#1971c2" stroke-width="1" fill="none"></path></g><g transform="translate(234.9020759812497 164.29993475140793) rotate(0 0.33378215609610606 30.45641952403568)"><path d="M-8.93 31.87 C-7.16 41.82, -4.44 49.58, -1.54 62.05 M-10.56 32.14 C-7.49 40.05, -5.56 46.49, 0.12 61.42" stroke="#1971c2" stroke-width="1" fill="none"></path></g><g transform="translate(234.9020759812497 164.29993475140793) rotate(0 0.33378215609610606 30.45641952403568)"><path d="M11.32 31.83 C6.49 41.95, 2.6 49.73, -1.54 62.05 M9.69 32.1 C8.08 40.19, 5.32 46.64, 0.12 61.42" stroke="#1971c2" stroke-width="1" fill="none"></path></g></g><mask></mask><g stroke-linecap="round" transform="translate(678.1568816055565 371.7600733027691) rotate(0 52.55952062749975 14.453868172562409)"><path d="M1.92 1.67 C1.92 1.67, 1.92 1.67, 1.92 1.67 M1.92 1.67 C1.92 1.67, 1.92 1.67, 1.92 1.67 M1.66 8.07 C3.73 5.25, 5.93 3.94, 8.22 0.52 M1.66 8.07 C3.26 6.27, 4.48 4.96, 8.22 0.52 M1.4 14.47 C6.51 10.25, 8.44 4.45, 13.21 0.88 M1.4 14.47 C3.49 10.52, 6.29 7.42, 13.21 0.88 M1.8 20.11 C5.91 14.47, 9.02 11.67, 18.85 0.49 M1.8 20.11 C8.59 13.96, 14.55 6.37, 18.85 0.49 M2.19 25.75 C8.41 17.15, 18.21 9.78, 23.84 0.85 M2.19 25.75 C5.87 21.05, 11.54 14.95, 23.84 0.85 M4.55 29.13 C11.95 22.33, 14.61 16.9, 29.48 0.45 M4.55 29.13 C12.33 21.31, 17.97 13.39, 29.48 0.45 M10.2 28.74 C19.34 19.76, 25.68 12.34, 34.47 0.81 M10.2 28.74 C16.01 20.59, 22.65 14.47, 34.47 0.81 M15.18 29.1 C20.96 22.01, 25.77 15.77, 39.46 1.17 M15.18 29.1 C24.86 18.22, 34.29 7.41, 39.46 1.17 M20.83 28.7 C27.3 21.57, 31.51 16.02, 45.1 0.78 M20.83 28.7 C27.1 19.77, 34.52 12.36, 45.1 0.78 M25.81 29.06 C34.87 21.95, 40.76 9.25, 50.09 1.14 M25.81 29.06 C34.28 20.18, 41.64 9.93, 50.09 1.14 M30.8 29.42 C39 21.35, 47.61 10.9, 55.73 0.75 M30.8 29.42 C40.42 19.76, 48.59 8.52, 55.73 0.75 M36.44 29.03 C40.04 24.08, 47.93 15.86, 60.72 1.11 M36.44 29.03 C46.28 18.56, 55.69 6.5, 60.72 1.11 M41.43 29.39 C49.63 20.6, 58.26 12, 66.36 0.71 M41.43 29.39 C48.75 21.03, 55.79 11.25, 66.36 0.71 M47.07 28.99 C55.4 18.74, 65.42 6.51, 71.35 1.07 M47.07 28.99 C57.8 18.26, 65.51 5.89, 71.35 1.07 M52.06 29.36 C61.74 18.91, 69.67 8.01, 76.99 0.68 M52.06 29.36 C58.5 20.59, 65.41 13.2, 76.99 0.68 M57.7 28.96 C64.66 21.12, 73.5 11.3, 81.98 1.04 M57.7 28.96 C65.99 19.42, 75.85 7.72, 81.98 1.04 M62.69 29.32 C72.83 18.81, 80.7 10.08, 86.96 1.4 M62.69 29.32 C68.98 22.39, 76.43 14.09, 86.96 1.4 M68.33 28.93 C72.51 23.97, 78.43 17.98, 92.61 1 M68.33 28.93 C74.15 23.7, 79.39 15.89, 92.61 1 M73.32 29.29 C78.95 20.34, 85.61 13.6, 97.59 1.36 M73.32 29.29 C82.84 18.55, 92.72 7.54, 97.59 1.36 M78.31 29.65 C86.36 21.68, 94.84 10.39, 102.58 1.72 M78.31 29.65 C86.61 20.79, 94.08 10.27, 102.58 1.72 M83.95 29.25 C92.05 20.11, 97.88 14.39, 105.6 4.35 M83.95 29.25 C91.81 21.4, 98.37 14.14, 105.6 4.35 M88.94 29.61 C92.88 24.75, 97.36 18.34, 105.34 10.74 M88.94 29.61 C95.01 22.99, 99.64 16.08, 105.34 10.74 M94.58 29.22 C96.19 26.33, 99.93 21.26, 105.08 17.14 M94.58 29.22 C98.61 25.14, 100.61 20.63, 105.08 17.14 M98.91 30.33 C100.48 28.9, 102.55 26.2, 105.47 22.78 M98.91 30.33 C101.13 27.78, 104.02 24.88, 105.47 22.78" stroke="#ffec99" stroke-width="0.5" fill="none"></path><path d="M7.23 0 M7.23 0 C43.55 1.63, 78.77 2.16, 97.89 0 M7.23 0 C25.96 1.62, 43.67 1.09, 97.89 0 M97.89 0 C102.58 -1.77, 103.39 1.51, 105.12 7.23 M97.89 0 C101.16 1.42, 107.41 0.44, 105.12 7.23 M105.12 7.23 C106.17 10.34, 105.47 15.48, 105.12 21.68 M105.12 7.23 C104.74 11.49, 104.79 14.96, 105.12 21.68 M105.12 21.68 C104.2 24.59, 102.83 28.52, 97.89 28.91 M105.12 21.68 C103.51 28.09, 102.48 31.04, 97.89 28.91 M97.89 28.91 C80.68 26.61, 59.31 29.31, 7.23 28.91 M97.89 28.91 C75.35 28.18, 51.37 28.94, 7.23 28.91 M7.23 28.91 C4.2 30.4, 1.67 25.53, 0 21.68 M7.23 28.91 C2.09 29.18, 1.29 25.03, 0 21.68 M0 21.68 C-0.87 16.9, 0.29 14.66, 0 7.23 M0 21.68 C0.53 18.52, -0.4 15.63, 0 7.23 M0 7.23 C1.76 3.22, 4.34 1.03, 7.23 0 M0 7.23 C-2.14 1.15, 1.37 1.8, 7.23 0" stroke="#e03131" stroke-width="1" fill="none"></path></g><g transform="translate(721.0529958609859 379.87267205833155) rotate(0 9.663406372070312 6.341269416999978)"><text x="9.663406372070312" y="0" font-family="Virgil, Segoe UI Emoji" font-size="10.146031067199955px" fill="#e03131" text-anchor="middle" style="white-space: pre;" direction="ltr" dominant-baseline="text-before-edge">1.1.1.1</text></g><g stroke-linecap="round"><g transform="translate(640.8324242618282 354.62569304986164) rotate(0 16.67250279749362 8.273950804809147)"><path d="M0.34 -0.19 C6.09 2.89, 28.63 14.88, 34.29 17.89 M-0.94 -1.34 C4.77 1.44, 28.09 13.16, 33.94 16.02" stroke="#e03131" stroke-width="1" fill="none"></path></g><g transform="translate(640.8324242618282 354.62569304986164) rotate(0 16.67250279749362 8.273950804809147)"><path d="M15.04 15.72 C21.31 16.29, 26.54 14.19, 35.13 16.45 M15.27 13.86 C21.72 14.14, 26.59 15.75, 33.26 15.53" stroke="#e03131" stroke-width="1" fill="none"></path></g><g transform="translate(640.8324242618282 354.62569304986164) rotate(0 16.67250279749362 8.273950804809147)"><path d="M20.73 4.25 C25.35 8.06, 28.98 9.18, 35.13 16.45 M20.97 2.4 C25.58 6.24, 28.7 11.38, 33.26 15.53" stroke="#e03131" stroke-width="1" fill="none"></path></g></g><mask></mask><g stroke-linecap="round" transform="translate(730.0611496158922 290.12176673994867) rotate(0 52.55952062749975 14.453868172562437)"><path d="M1.92 1.67 C1.92 1.67, 1.92 1.67, 1.92 1.67 M1.92 1.67 C1.92 1.67, 1.92 1.67, 1.92 1.67 M1.66 8.07 C3.05 6.69, 4.21 4.08, 8.22 0.52 M1.66 8.07 C3.41 7, 4.07 4.8, 8.22 0.52 M1.4 14.47 C4.07 10.16, 9.4 4.4, 13.21 0.88 M1.4 14.47 C6.36 9.04, 10.41 4.18, 13.21 0.88 M1.8 20.11 C3.87 17.51, 8.56 13.97, 18.85 0.49 M1.8 20.11 C6.36 15.41, 8.79 12.63, 18.85 0.49 M2.19 25.75 C8.31 17.67, 11.52 12.91, 23.84 0.85 M2.19 25.75 C9.96 15.72, 19 6.72, 23.84 0.85 M4.55 29.13 C10.4 21.17, 14.99 16.01, 29.48 0.45 M4.55 29.13 C12.56 20.35, 21.07 9.59, 29.48 0.45 M10.2 28.74 C19.09 21.37, 22.51 10.95, 34.47 0.81 M10.2 28.74 C15.33 22.39, 21.42 13.48, 34.47 0.81 M15.18 29.1 C21.08 21.74, 26.03 15.82, 39.46 1.17 M15.18 29.1 C21.21 24.1, 26.35 16.7, 39.46 1.17 M20.83 28.7 C27.76 20.64, 29.98 16.72, 45.1 0.78 M20.83 28.7 C26.84 22.23, 33.59 13.52, 45.1 0.78 M25.81 29.06 C31.23 22.67, 36.11 15.95, 50.09 1.14 M25.81 29.06 C35.21 19.29, 42.56 10.09, 50.09 1.14 M30.8 29.42 C38.52 21.28, 48.66 10.71, 55.73 0.75 M30.8 29.42 C37.86 20.89, 45.08 13.26, 55.73 0.75 M36.44 29.03 C42.98 19.35, 51.93 13.46, 60.72 1.11 M36.44 29.03 C45.27 18.08, 55.79 6.76, 60.72 1.11 M41.43 29.39 C50.32 19.2, 61.24 8.8, 66.36 0.71 M41.43 29.39 C46.27 23.2, 52.96 15.64, 66.36 0.71 M47.07 28.99 C54.27 20.63, 62.91 12.41, 71.35 1.07 M47.07 28.99 C56.42 19.75, 65.49 8.02, 71.35 1.07 M52.06 29.36 C58.79 20.82, 66.64 12.4, 76.99 0.68 M52.06 29.36 C60.52 20.26, 67.97 11.26, 76.99 0.68 M57.7 28.96 C65.17 18.43, 76.2 8.13, 81.98 1.04 M57.7 28.96 C64.38 20.22, 71.94 12.09, 81.98 1.04 M62.69 29.32 C66.51 24.23, 71.57 17.96, 86.96 1.4 M62.69 29.32 C72.01 19.47, 80.01 8.39, 86.96 1.4 M68.33 28.93 C76.53 17.82, 82.45 10.85, 92.61 1 M68.33 28.93 C76.89 18.31, 87.38 7.12, 92.61 1 M73.32 29.29 C78.92 21.98, 84.14 17.14, 97.59 1.36 M73.32 29.29 C79.59 22.35, 83.85 15.97, 97.59 1.36 M78.31 29.65 C84.73 23.58, 92.32 13.09, 102.58 1.72 M78.31 29.65 C84.04 22.98, 90 16.38, 102.58 1.72 M83.95 29.25 C90.89 21.53, 96.74 10.74, 105.6 4.35 M83.95 29.25 C90.68 20.01, 98.53 12.94, 105.6 4.35 M88.94 29.61 C93.1 23.31, 96.07 18.28, 105.34 10.74 M88.94 29.61 C92.28 25.51, 95.22 21.64, 105.34 10.74 M94.58 29.22 C96.91 28.15, 98.53 25.2, 105.08 17.14 M94.58 29.22 C97.02 26.33, 99.24 23.97, 105.08 17.14 M98.91 30.33 C100.24 27.35, 103.81 25.46, 105.47 22.78 M98.91 30.33 C100.06 28.68, 102.37 26.97, 105.47 22.78" stroke="#ffec99" stroke-width="0.5" fill="none"></path><path d="M7.23 0 M7.23 0 C41.56 -0.84, 71.73 1.73, 97.89 0 M7.23 0 C32.7 -1.66, 59.64 -1.52, 97.89 0 M97.89 0 C101.22 -0.58, 104.24 4.29, 105.12 7.23 M97.89 0 C104.51 -0.2, 105.73 3.12, 105.12 7.23 M105.12 7.23 C104.77 10.07, 106 12.47, 105.12 21.68 M105.12 7.23 C105.44 10.93, 105.09 13.53, 105.12 21.68 M105.12 21.68 C103.49 27.15, 103.91 29, 97.89 28.91 M105.12 21.68 C103.24 25.29, 103.82 26.73, 97.89 28.91 M97.89 28.91 C73.93 27.44, 53.89 28.14, 7.23 28.91 M97.89 28.91 C73.38 29.79, 50.81 29.6, 7.23 28.91 M7.23 28.91 C2.73 27.69, 0.74 27.73, 0 21.68 M7.23 28.91 C2.76 26.64, 1.03 25.61, 0 21.68 M0 21.68 C-0.62 19.47, -0.28 15.83, 0 7.23 M0 21.68 C-0.15 15.94, 0.64 10.71, 0 7.23 M0 7.23 C1.89 2.25, 3.61 -0.19, 7.23 0 M0 7.23 C-1.28 2.37, 0.11 -0.99, 7.23 0" stroke="#1971c2" stroke-width="1" fill="none"></path></g><g transform="translate(773.5200309001302 298.23436549551116) rotate(0 9.100639343261719 6.341269416999978)"><text x="9.100639343261719" y="0" font-family="Virgil, Segoe UI Emoji" font-size="10.146031067199955px" fill="#1971c2" text-anchor="middle" style="white-space: pre;" direction="ltr" dominant-baseline="text-before-edge">k8s</text></g><g stroke-linecap="round"><g transform="translate(682.5864583928155 266.39120248105183) rotate(0 22.63137738188368 14.404374361351557)"><path d="M1.06 1.07 C8.4 5.71, 37.67 22.7, 45.11 27.22 M0.15 0.58 C7.2 5.39, 36.45 23.41, 43.93 28.22" stroke="#1971c2" stroke-width="1" fill="none"></path></g><g transform="translate(682.5864583928155 266.39120248105183) rotate(0 22.63137738188368 14.404374361351557)"><path d="M19.5 21.81 C26.15 24.74, 37.92 27.47, 43.66 28.62 M18.1 21.86 C26.28 24.15, 36.15 26.07, 44.26 27.46" stroke="#1971c2" stroke-width="1" fill="none"></path></g><g transform="translate(682.5864583928155 266.39120248105183) rotate(0 22.63137738188368 14.404374361351557)"><path d="M29.27 6.29 C32.05 15.32, 40.04 24.07, 43.66 28.62 M27.87 6.34 C32.48 14.18, 38.83 21.71, 44.26 27.46" stroke="#1971c2" stroke-width="1" fill="none"></path></g></g><mask></mask><g stroke-linecap="round" transform="translate(124.39758897493755 350.1307567558455) rotate(0 52.89300238753134 16.255592924648795)"><path d="M2.16 1.88 C2.16 1.88, 2.16 1.88, 2.16 1.88 M2.16 1.88 C2.16 1.88, 2.16 1.88, 2.16 1.88 M1.25 9.03 C3.71 6.31, 3.62 6.15, 8.46 0.73 M1.25 9.03 C3.89 6.79, 5.26 4.1, 8.46 0.73 M0.98 15.43 C4.68 12.32, 7.72 5.12, 14.11 0.34 M0.98 15.43 C6.6 10.52, 10.08 3.44, 14.11 0.34 M1.38 21.07 C6.04 15.92, 7.78 9.37, 19.09 0.7 M1.38 21.07 C5.67 16.19, 8.03 12.76, 19.09 0.7 M0.46 28.23 C9.42 18.64, 15.59 10.28, 24.74 0.3 M0.46 28.23 C6.86 19.89, 14.99 13.27, 24.74 0.3 M3.48 30.85 C10.55 19.2, 19.31 12.66, 29.72 0.66 M3.48 30.85 C13.93 19.51, 24.22 6.98, 29.72 0.66 M6.5 33.47 C16.05 23.68, 22.9 16.12, 35.37 0.27 M6.5 33.47 C16 21.79, 24.85 11.47, 35.37 0.27 M11.49 33.84 C19.03 26.34, 22.02 19.76, 40.35 0.63 M11.49 33.84 C21.01 22.66, 28.55 12.27, 40.35 0.63 M17.13 33.44 C23.37 26.49, 31.46 16.53, 45.34 0.99 M17.13 33.44 C25.61 23.96, 32.53 16.04, 45.34 0.99 M22.12 33.8 C33.25 23.19, 43.88 10.58, 50.98 0.59 M22.12 33.8 C29.52 25.5, 36.75 17.09, 50.98 0.59 M27.76 33.41 C36 24.9, 42.83 14.15, 55.97 0.95 M27.76 33.41 C37.04 22.24, 47.21 10.83, 55.97 0.95 M32.75 33.77 C38.13 26.42, 46.04 17.88, 61.61 0.56 M32.75 33.77 C41.31 25.09, 49.45 14.3, 61.61 0.56 M37.73 34.13 C43.3 25.66, 49.81 19.6, 66.6 0.92 M37.73 34.13 C48.42 23.08, 57.75 13.03, 66.6 0.92 M43.38 33.73 C49.9 22.31, 60.24 12.79, 72.24 0.52 M43.38 33.73 C50.18 24.95, 58.99 16.34, 72.24 0.52 M48.36 34.09 C57.3 26.04, 65.32 14.12, 77.23 0.88 M48.36 34.09 C57.42 22.17, 66.84 12.05, 77.23 0.88 M54.01 33.7 C65.13 20.58, 75.08 7.86, 82.22 1.24 M54.01 33.7 C64.52 22.95, 73.25 11.6, 82.22 1.24 M58.99 34.06 C71.21 20.34, 82.31 11.2, 87.86 0.85 M58.99 34.06 C65.88 25.09, 74.24 16.67, 87.86 0.85 M64.64 33.66 C74.5 20.02, 85.35 8.75, 92.85 1.21 M64.64 33.66 C70.93 27.07, 76.33 18.94, 92.85 1.21 M69.62 34.02 C79.98 25.77, 88.01 14.85, 98.49 0.82 M69.62 34.02 C76.21 26.9, 82.94 17.76, 98.49 0.82 M75.27 33.63 C82.17 26.78, 90.25 16.66, 102.82 1.93 M75.27 33.63 C82.59 25.4, 88.53 18.67, 102.82 1.93 M80.25 33.99 C90.22 25.91, 95.32 15.41, 105.84 4.55 M80.25 33.99 C88.01 26.15, 94.37 17.01, 105.84 4.55 M85.24 34.35 C91.59 30.46, 92.36 23.72, 105.58 10.95 M85.24 34.35 C89.55 29.07, 95.58 24.1, 105.58 10.95 M90.88 33.95 C98.34 28.86, 102.71 22, 105.32 17.35 M90.88 33.95 C96.3 27.98, 100.76 21.65, 105.32 17.35 M95.87 34.31 C97.97 29.31, 102.15 26.58, 105.71 22.99 M95.87 34.31 C98.7 30.77, 103.01 27.26, 105.71 22.99" stroke="#ffec99" stroke-width="0.5" fill="none"></path><path d="M8.13 0 M8.13 0 C31.59 -1.99, 57.51 -0.03, 97.66 0 M8.13 0 C44.38 -0.09, 79.21 0.16, 97.66 0 M97.66 0 C103.33 -1.66, 104.64 4.19, 105.79 8.13 M97.66 0 C103.44 -1.12, 105.29 3.05, 105.79 8.13 M105.79 8.13 C104.41 12.26, 104.4 18.1, 105.79 24.38 M105.79 8.13 C105.8 12.01, 105.32 16.54, 105.79 24.38 M105.79 24.38 C106.64 29.64, 102.37 32.41, 97.66 32.51 M105.79 24.38 C106.61 29.45, 100.88 34.65, 97.66 32.51 M97.66 32.51 C72.66 31.54, 48.46 30.22, 8.13 32.51 M97.66 32.51 C71.88 32.5, 44.08 32.32, 8.13 32.51 M8.13 32.51 C1.26 30.94, -1.74 28.73, 0 24.38 M8.13 32.51 C2.9 33.86, 0.24 28.86, 0 24.38 M0 24.38 C1.17 21.54, 1.69 16.51, 0 8.13 M0 24.38 C-0.74 20.52, 0.42 16.58, 0 8.13 M0 8.13 C1.97 1.58, 2.69 -1.71, 8.13 0 M0 8.13 C-1.37 1.41, 3.07 -2.26, 8.13 0" stroke="#1971c2" stroke-width="1" fill="none"></path></g><g transform="translate(151.32969963883602 359.3361736584086) rotate(0 25.960891723632812 7.050176022085623)"><text x="25.960891723632812" y="0" font-family="Virgil, Segoe UI Emoji" font-size="11.280281635337015px" fill="#1971c2" text-anchor="middle" style="white-space: pre;" direction="ltr" dominant-baseline="text-before-edge">10.0.3.80</text></g><g transform="translate(12.139778738307427 354.4408344092185) rotate(0 31.32575225830078 7.2524081364762765)"><text x="0" y="0" font-family="Virgil, Segoe UI Emoji" font-size="11.603853018362038px" fill="#1971c2" text-anchor="start" style="white-space: pre;" direction="ltr" dominant-baseline="text-before-edge">plex.ktwo.io</text></g><g transform="translate(75.276000830606 346.6933878920448) rotate(0 6.428466796875 17.244007285079647)"><text x="0" y="0" font-family="Virgil, Segoe UI Emoji" font-size="27.590411656127433px" fill="#1971c2" text-anchor="start" style="white-space: pre;" direction="ltr" dominant-baseline="text-before-edge">?</text></g><g stroke-linecap="round"><g transform="translate(93.72695970759355 366.1822896900362) rotate(0 12.65467013132843 0.03865045652975141)"><path d="M0.57 -1.02 C4.83 -0.98, 22.01 -0.84, 25.9 -0.47 M-0.59 1.05 C3.59 1.26, 21.08 0.78, 25.58 0.45" stroke="#1971c2" stroke-width="1" fill="none"></path></g><g transform="translate(93.72695970759355 366.1822896900362) rotate(0 12.65467013132843 0.03865045652975141)"><path d="M13.11 6.43 C16.73 2.77, 22.15 1.39, 25.15 -0.71 M14.12 4.89 C18.14 3.74, 22.29 1.62, 25.48 -0.16" stroke="#1971c2" stroke-width="1" fill="none"></path></g><g transform="translate(93.72695970759355 366.1822896900362) rotate(0 12.65467013132843 0.03865045652975141)"><path d="M12.73 -2.01 C16.42 -2.91, 21.97 -1.53, 25.15 -0.71 M13.73 -3.55 C17.86 -1.72, 22.15 -0.85, 25.48 -0.16" stroke="#1971c2" stroke-width="1" fill="none"></path></g></g><mask></mask><g stroke-linecap="round" transform="translate(827.6693550346049 212.3003115792023) rotate(0 52.55952062749975 14.453868172562437)"><path d="M1.92 1.67 C1.92 1.67, 1.92 1.67, 1.92 1.67 M1.92 1.67 C1.92 1.67, 1.92 1.67, 1.92 1.67 M1.66 8.07 C3.81 5.18, 5.86 3, 8.22 0.52 M1.66 8.07 C3.57 5.92, 5.45 2.93, 8.22 0.52 M1.4 14.47 C4.17 8.81, 12.17 3.85, 13.21 0.88 M1.4 14.47 C4.91 11.76, 7.81 8.43, 13.21 0.88 M1.8 20.11 C7.61 13.11, 10.32 8.1, 18.85 0.49 M1.8 20.11 C7.28 13.91, 11.21 8.1, 18.85 0.49 M2.19 25.75 C6.66 19.73, 13.77 13.67, 23.84 0.85 M2.19 25.75 C10.64 16.83, 17.72 7.24, 23.84 0.85 M4.55 29.13 C11.57 23.34, 17.25 13.95, 29.48 0.45 M4.55 29.13 C11.39 20.42, 20.46 11.43, 29.48 0.45 M10.2 28.74 C14.22 21.85, 22.06 16.19, 34.47 0.81 M10.2 28.74 C18.19 19.41, 26.82 7.48, 34.47 0.81 M15.18 29.1 C21.22 22.51, 27.97 16.88, 39.46 1.17 M15.18 29.1 C25.1 17.86, 34.73 7.69, 39.46 1.17 M20.83 28.7 C28.53 21.75, 35.96 14.04, 45.1 0.78 M20.83 28.7 C31.23 16.84, 40.9 7.21, 45.1 0.78 M25.81 29.06 C32.08 20.44, 39.34 13.86, 50.09 1.14 M25.81 29.06 C35.29 17.6, 45.54 7.44, 50.09 1.14 M30.8 29.42 C36.49 23.96, 39.59 15.87, 55.73 0.75 M30.8 29.42 C37.81 22.67, 42.48 15.76, 55.73 0.75 M36.44 29.03 C44.5 18.51, 56.76 6.31, 60.72 1.11 M36.44 29.03 C43.48 22.42, 50.3 15.16, 60.72 1.11 M41.43 29.39 C45.74 21.97, 52.81 15.33, 66.36 0.71 M41.43 29.39 C51.14 19.02, 60.62 9.06, 66.36 0.71 M47.07 28.99 C53.05 23.27, 57.51 16.12, 71.35 1.07 M47.07 28.99 C56.74 18.81, 65.08 8.57, 71.35 1.07 M52.06 29.36 C61.01 21.93, 66.44 13.73, 76.99 0.68 M52.06 29.36 C59.36 21.15, 66.38 12.86, 76.99 0.68 M57.7 28.96 C64.95 23.6, 69.28 15.14, 81.98 1.04 M57.7 28.96 C63.46 22.24, 67.13 17.56, 81.98 1.04 M62.69 29.32 C69.69 20.87, 75.87 17.65, 86.96 1.4 M62.69 29.32 C69.22 21.29, 74.17 14.3, 86.96 1.4 M68.33 28.93 C79.49 19.81, 88.46 7.68, 92.61 1 M68.33 28.93 C75.62 21.39, 82.77 12.18, 92.61 1 M73.32 29.29 C80.46 21.57, 82.55 17.38, 97.59 1.36 M73.32 29.29 C79.4 21.5, 87.08 14.43, 97.59 1.36 M78.31 29.65 C83.42 24.84, 87.49 15.79, 102.58 1.72 M78.31 29.65 C82.73 23.69, 89.71 16.44, 102.58 1.72 M83.95 29.25 C91.91 21.44, 102.48 9.67, 105.6 4.35 M83.95 29.25 C91.11 20.14, 98.51 11.13, 105.6 4.35 M88.94 29.61 C93.36 24.36, 97.64 17.56, 105.34 10.74 M88.94 29.61 C93.99 25.19, 98.91 19.66, 105.34 10.74 M94.58 29.22 C99.53 24.99, 104.04 20.6, 105.08 17.14 M94.58 29.22 C96.97 26.71, 98.69 24.68, 105.08 17.14 M98.91 30.33 C99.84 27.89, 102.52 26.29, 105.47 22.78 M98.91 30.33 C100.72 28.51, 102.04 26.47, 105.47 22.78" stroke="#ffec99" stroke-width="0.5" fill="none"></path><path d="M7.23 0 M7.23 0 C41.71 -1.02, 77.36 1.26, 97.89 0 M7.23 0 C26.39 -0.95, 43.58 -1.11, 97.89 0 M97.89 0 C104.04 0.49, 106.13 0.96, 105.12 7.23 M97.89 0 C102.15 -0.64, 105.91 0.62, 105.12 7.23 M105.12 7.23 C105.38 13.12, 106.42 18.63, 105.12 21.68 M105.12 7.23 C104.91 12.72, 105.21 16.77, 105.12 21.68 M105.12 21.68 C105.9 26.98, 102.57 28.78, 97.89 28.91 M105.12 21.68 C104.66 24.36, 101.15 28.48, 97.89 28.91 M97.89 28.91 C72.59 29.74, 51.71 27.05, 7.23 28.91 M97.89 28.91 C61.29 29.19, 26.55 29.4, 7.23 28.91 M7.23 28.91 C2.21 28.56, -0.03 26.98, 0 21.68 M7.23 28.91 C3.83 29.19, 2.06 26.07, 0 21.68 M0 21.68 C1.2 14.99, -0.47 11.79, 0 7.23 M0 21.68 C0.62 16.24, -0.58 11.48, 0 7.23 M0 7.23 C-0.23 3.12, 2.99 -1.9, 7.23 0 M0 7.23 C2.03 0.4, 4.53 1.66, 7.23 0" stroke="#e03131" stroke-width="1" fill="none"></path></g><g transform="translate(870.5654692900343 220.41291033476477) rotate(0 9.663406372070312 6.341269416999978)"><text x="9.663406372070312" y="0" font-family="Virgil, Segoe UI Emoji" font-size="10.146031067199955px" fill="#e03131" text-anchor="middle" style="white-space: pre;" direction="ltr" dominant-baseline="text-before-edge">1.1.1.1</text></g><g stroke-linecap="round"><g transform="translate(783.0435199170772 187.53651577736912) rotate(0 16.248152389129586 9.942034903542236)"><path d="M0.34 -1.13 C5.84 2.24, 27.95 17.46, 33.44 21.02 M-0.94 0.88 C4.46 3.81, 27.36 15.67, 33 19.08" stroke="#e03131" stroke-width="1" fill="none"></path></g><g transform="translate(783.0435199170772 187.53651577736912) rotate(0 16.248152389129586 9.942034903542236)"><path d="M12.18 17.64 C20.95 18.33, 26.06 16.94, 31.79 20.72 M14.04 15.2 C19.14 17.14, 23.57 17.29, 32.61 19.71" stroke="#e03131" stroke-width="1" fill="none"></path></g><g transform="translate(783.0435199170772 187.53651577736912) rotate(0 16.248152389129586 9.942034903542236)"><path d="M18.57 6.14 C25.27 10.69, 28.25 13.15, 31.79 20.72 M20.42 3.69 C24.08 8.27, 27.03 11.08, 32.61 19.71" stroke="#e03131" stroke-width="1" fill="none"></path></g></g><mask></mask><g stroke-linecap="round" transform="translate(857.90234375 13.27734375) rotate(0 7.41015625 7.353515625)"><path d="M1.74 2.83 C1.74 2.83, 1.74 2.83, 1.74 2.83 M1.74 2.83 C1.74 2.83, 1.74 2.83, 1.74 2.83 M-0.02 10.34 C3.01 7.25, 4.58 4.82, 7.17 0.92 M1.03 9.51 C3.13 7.3, 6.45 3.82, 8.09 1.63 M1.86 12.2 C4.68 9.99, 10.17 6.98, 13.71 2.28 M2.85 13.22 C5.77 10.78, 7.72 8.5, 13.55 1.32 M7.64 13.33 C10.49 11.45, 13.66 7.27, 15.77 5.5 M6.89 14.49 C9.69 11.25, 13.1 8.05, 15.76 4.5" stroke="#ffec99" stroke-width="0.5" fill="none"></path><path d="M11.13 -0.09 C12.6 0.14, 13.25 1.52, 13.83 3.11 C14.41 4.71, 14.96 7.68, 14.59 9.46 C14.23 11.24, 12.86 12.92, 11.63 13.8 C10.4 14.68, 8.75 15.02, 7.21 14.74 C5.67 14.46, 3.69 13.24, 2.38 12.12 C1.06 11.01, -0.57 9.57, -0.7 8.04 C-0.82 6.52, 0.62 4.41, 1.62 2.97 C2.62 1.53, 3.62 -0.47, 5.31 -0.58 C6.99 -0.69, 10.35 1.64, 11.74 2.31 C13.14 2.98, 13.9 3.42, 13.7 3.45 M3.85 1 C5.32 0.22, 8.15 -1.22, 9.89 -0.71 C11.63 -0.2, 13.5 2.63, 14.27 4.05 C15.05 5.47, 14.94 6.18, 14.53 7.82 C14.12 9.45, 13.23 12.61, 11.81 13.86 C10.39 15.12, 7.62 15.43, 6.02 15.35 C4.42 15.26, 2.96 14.69, 2.2 13.34 C1.45 11.99, 1.7 9.06, 1.47 7.27 C1.25 5.49, 0.15 3.83, 0.85 2.63 C1.56 1.43, 5.05 0.58, 5.7 0.06 C6.36 -0.46, 4.66 -0.68, 4.79 -0.48" stroke="#1971c2" stroke-width="1" fill="none"></path></g><g transform="translate(877.3984375 11.71875) rotate(0 31.60797882080078 10)"><text x="0" y="0" font-family="Virgil, Segoe UI Emoji" font-size="16px" fill="#1971c2" text-anchor="start" style="white-space: pre;" direction="ltr" dominant-baseline="text-before-edge">Internal</text></g><g stroke-linecap="round" transform="translate(858.15625 45.140625) rotate(0 8.869140625 8.951171875)"><path d="M3.67 1.87 C3.67 1.87, 3.67 1.87, 3.67 1.87 M3.67 1.87 C3.67 1.87, 3.67 1.87, 3.67 1.87 M3.22 9.3 C5.29 6.95, 6.91 3.26, 10.64 1.07 M2.89 9.11 C5.71 5.93, 7.31 3.25, 10.04 0.89 M1.78 16.53 C5.22 9.24, 12.45 4.22, 13.83 1.06 M2.02 14.59 C5.54 12.26, 6.6 9.55, 13.62 2.26 M7.69 15.92 C11.12 11.63, 14.02 8.89, 16.39 5.94 M6.11 16.88 C8.53 15.05, 10.28 11.77, 17.93 4.74 M12.8 17.11 C13.28 14.3, 15.66 12.96, 19.1 9.4 M11.44 17.36 C13.29 15.14, 15.15 12.83, 19.38 8.75" stroke="#ffec99" stroke-width="0.5" fill="none"></path><path d="M8.41 -0.19 C10.24 -0.36, 13.33 0.79, 14.84 1.98 C16.35 3.18, 17.29 5.13, 17.46 6.97 C17.62 8.8, 16.82 11.34, 15.82 13.02 C14.83 14.69, 13.05 16.32, 11.5 17.03 C9.95 17.74, 8.26 17.83, 6.51 17.26 C4.76 16.68, 2 15.29, 1 13.57 C0 11.85, 0.08 8.87, 0.52 6.93 C0.95 5, 2.27 2.95, 3.6 1.96 C4.93 0.96, 7.54 1.19, 8.5 0.97 C9.46 0.74, 9.38 0.67, 9.36 0.62 M9.98 1.57 C11.68 2.19, 15.92 3.26, 17.16 4.45 C18.4 5.64, 17.61 6.66, 17.43 8.71 C17.26 10.76, 17.37 15.3, 16.11 16.76 C14.85 18.23, 12.01 17.72, 9.85 17.52 C7.69 17.31, 4.76 16.54, 3.16 15.53 C1.55 14.52, 0.79 13.11, 0.21 11.46 C-0.36 9.82, -1.12 7.41, -0.32 5.67 C0.48 3.92, 3.01 2.03, 5 0.97 C7 -0.08, 10.62 -0.73, 11.65 -0.68 C12.68 -0.63, 11.5 1.09, 11.18 1.3" stroke="#e03131" stroke-width="1" fill="none"></path></g><g transform="translate(880.8125 46.2578125) rotate(0 33.39997863769531 10)"><text x="0" y="0" font-family="Virgil, Segoe UI Emoji" font-size="16px" fill="#e03131" text-anchor="start" style="white-space: pre;" direction="ltr" dominant-baseline="text-before-edge">External</text></g><g stroke-linecap="round" transform="translate(123.48199648078378 392.68574775725153) rotate(0 52.89300238753134 16.255592924648795)"><path d="M2.16 1.88 C2.16 1.88, 2.16 1.88, 2.16 1.88 M2.16 1.88 C2.16 1.88, 2.16 1.88, 2.16 1.88 M1.25 9.03 C4.14 6.7, 4.2 5.51, 8.46 0.73 M1.25 9.03 C3.99 6.24, 6.91 2.49, 8.46 0.73 M0.98 15.43 C4.41 10.16, 7.86 6.86, 14.11 0.34 M0.98 15.43 C4.6 11.02, 9.93 5.97, 14.11 0.34 M1.38 21.07 C6.87 13.74, 13.96 7.69, 19.09 0.7 M1.38 21.07 C6.38 16.13, 11.18 10.43, 19.09 0.7 M0.46 28.23 C7.66 18.93, 11.55 14.78, 24.74 0.3 M0.46 28.23 C10.26 17.97, 17.7 8.63, 24.74 0.3 M3.48 30.85 C8.52 21.39, 18.48 13.93, 29.72 0.66 M3.48 30.85 C12.96 20.32, 21.16 10.37, 29.72 0.66 M6.5 33.47 C13.15 25.71, 21.49 17.32, 35.37 0.27 M6.5 33.47 C17.22 22.04, 27.77 10, 35.37 0.27 M11.49 33.84 C19.47 26.12, 25.25 19.21, 40.35 0.63 M11.49 33.84 C19.41 26.21, 24.73 18.27, 40.35 0.63 M17.13 33.44 C21.99 24.49, 30.17 18.16, 45.34 0.99 M17.13 33.44 C29.25 21.63, 39.55 8.01, 45.34 0.99 M22.12 33.8 C32.29 21.52, 44.19 8.22, 50.98 0.59 M22.12 33.8 C28.22 26.47, 33.74 19.62, 50.98 0.59 M27.76 33.41 C36.51 26.55, 43.13 17.86, 55.97 0.95 M27.76 33.41 C36 22.8, 45.88 13.42, 55.97 0.95 M32.75 33.77 C41.44 23.33, 48.19 17, 61.61 0.56 M32.75 33.77 C43.47 21.74, 53.88 10.5, 61.61 0.56 M37.73 34.13 C45.82 23.66, 57.31 9.36, 66.6 0.92 M37.73 34.13 C45.44 23.68, 54.1 13.61, 66.6 0.92 M43.38 33.73 C50.62 27.57, 55.81 18.33, 72.24 0.52 M43.38 33.73 C52.06 24.79, 60.29 16.5, 72.24 0.52 M48.36 34.09 C54.24 24.44, 60.67 19.86, 77.23 0.88 M48.36 34.09 C58.86 23.5, 68.02 10.92, 77.23 0.88 M54.01 33.7 C63.72 26.22, 69.87 14.09, 82.22 1.24 M54.01 33.7 C60.72 26.02, 66.2 20.13, 82.22 1.24 M58.99 34.06 C69.95 22.8, 78.66 9, 87.86 0.85 M58.99 34.06 C65.66 28.29, 71.48 21.57, 87.86 0.85 M64.64 33.66 C73.93 20.4, 84.97 9.07, 92.85 1.21 M64.64 33.66 C73.8 23.67, 83.89 12.4, 92.85 1.21 M69.62 34.02 C79.31 24.36, 89.68 13.12, 98.49 0.82 M69.62 34.02 C80.78 22.08, 91.79 8.46, 98.49 0.82 M75.27 33.63 C82.39 25.76, 91.46 15.98, 102.82 1.93 M75.27 33.63 C81.48 27, 87.05 20.5, 102.82 1.93 M80.25 33.99 C84.73 25.41, 94.7 18.53, 105.84 4.55 M80.25 33.99 C89.78 24.51, 98.02 13.64, 105.84 4.55 M85.24 34.35 C90.61 30.32, 94.24 23.64, 105.58 10.95 M85.24 34.35 C91.53 27.01, 98.48 20.07, 105.58 10.95 M90.88 33.95 C97.56 25.77, 101.06 21.42, 105.32 17.35 M90.88 33.95 C96.58 28.94, 101.15 22.1, 105.32 17.35 M95.87 34.31 C99.43 31.6, 103.07 25.73, 105.71 22.99 M95.87 34.31 C99.27 29.68, 103.4 25.71, 105.71 22.99" stroke="#ffec99" stroke-width="0.5" fill="none"></path><path d="M8.13 0 M8.13 0 C37.51 1.03, 66.48 -1.25, 97.66 0 M8.13 0 C29.82 0.24, 50.5 0.63, 97.66 0 M97.66 0 C104.17 0.9, 106.61 2.73, 105.79 8.13 M97.66 0 C105 -1.66, 106.77 0.61, 105.79 8.13 M105.79 8.13 C106.62 15.55, 106.88 21.7, 105.79 24.38 M105.79 8.13 C105.95 13.17, 106.16 17.23, 105.79 24.38 M105.79 24.38 C106.74 27.82, 101.74 34.37, 97.66 32.51 M105.79 24.38 C107.85 29.73, 102.89 34.26, 97.66 32.51 M97.66 32.51 C76.37 33.3, 56.79 30.66, 8.13 32.51 M97.66 32.51 C74.84 33.43, 49.97 34.09, 8.13 32.51 M8.13 32.51 C1.9 34.35, -1.94 28.56, 0 24.38 M8.13 32.51 C4.69 32.84, 0.86 28.08, 0 24.38 M0 24.38 C0.57 19.71, -0.2 14.47, 0 8.13 M0 24.38 C0.02 19.39, -0.11 14.39, 0 8.13 M0 8.13 C1.01 1.21, 2.27 -1.61, 8.13 0 M0 8.13 C1.89 3.31, 2.3 -1.09, 8.13 0" stroke="#e03131" stroke-width="1" fill="none"></path></g><g transform="translate(161.22598916372533 401.89116465981465) rotate(0 15.149009704589844 7.050176022085623)"><text x="15.149009704589844" y="0" font-family="Virgil, Segoe UI Emoji" font-size="11.280281635337015px" fill="#e03131" text-anchor="middle" style="white-space: pre;" direction="ltr" dominant-baseline="text-before-edge">?.?.?.?</text></g><g transform="translate(11.224186244153657 396.99582541062466) rotate(0 31.32575225830078 7.2524081364762765)"><text x="0" y="0" font-family="Virgil, Segoe UI Emoji" font-size="11.603853018362038px" fill="#e03131" text-anchor="start" style="white-space: pre;" direction="ltr" dominant-baseline="text-before-edge">plex.ktwo.io</text></g><g transform="translate(74.36040833645222 389.2483788934509) rotate(0 6.428466796875 17.244007285079647)"><text x="0" y="0" font-family="Virgil, Segoe UI Emoji" font-size="27.590411656127433px" fill="#e03131" text-anchor="start" style="white-space: pre;" direction="ltr" dominant-baseline="text-before-edge">?</text></g><g stroke-linecap="round"><g transform="translate(92.81136721343967 408.7372806914424) rotate(0 12.40379466302312 0.41844514601018545)"><path d="M0.89 -0.72 C5.12 -0.68, 21.02 -0.7, 24.91 -0.4 M-0.1 1.52 C4.02 1.72, 20.18 0.99, 24.07 0.56" stroke="#e03131" stroke-width="1" fill="none"></path></g><g transform="translate(92.81136721343967 408.7372806914424) rotate(0 12.40379466302312 0.41844514601018545)"><path d="M12.04 5.8 C14.65 3.71, 19.16 3.62, 25.23 0.43 M13.13 5.3 C15.22 4.87, 17.85 3.23, 24.23 0.51" stroke="#e03131" stroke-width="1" fill="none"></path></g><g transform="translate(92.81136721343967 408.7372806914424) rotate(0 12.40379466302312 0.41844514601018545)"><path d="M11.45 -2.63 C14.17 -2.51, 18.83 -0.39, 25.23 0.43 M12.54 -3.14 C14.83 -1.65, 17.59 -1.37, 24.23 0.51" stroke="#e03131" stroke-width="1" fill="none"></path></g></g><mask></mask></svg>